<?xml version="1.0" encoding="utf-8"?>
<!-- Generator: Adobe Illustrator 27.9.4, SVG Export Plug-In . SVG Version: 9.03 Build 54784)  -->
<svg version="1.1" id="Layer_1" xmlns="http://www.w3.org/2000/svg" xmlns:xlink="http://www.w3.org/1999/xlink" x="0px" y="0px"
	 viewBox="0 0 478 165" style="enable-background:new 0 0 478 165;" xml:space="preserve">
<style type="text/css">
	.st0{fill:url(#SVGID_1_);}
	.st1{fill:url(#SVGID_00000139270436173205136170000006644835643358582408_);}
	.st2{fill:url(#SVGID_00000008863125708896554120000004174748144643184555_);}
	.st3{fill:#7D9CAB;}
</style>
<g>
	<g>
		
			<radialGradient id="SVGID_1_" cx="34.578" cy="-21.5847" r="138.5861" gradientTransform="matrix(0.8642 0.5032 -0.5032 0.8642 77.3933 -13.7073)" gradientUnits="userSpaceOnUse">
			<stop  offset="0" style="stop-color:#EFCA24"/>
			<stop  offset="1" style="stop-color:#F3722A"/>
		</radialGradient>
		<path class="st0" d="M94.7,52c14.7,0.1,26.9,10.4,30,24.1l14.9,0.1c-1.7-11-7.2-20.7-15.2-27.6l8.3-13.3c0.7,0.1,1.5,0.2,2.2,0.2
			c8.3,0,15.1-6.6,15.1-14.9c0-8.3-6.6-15-14.9-15.1c-8.3,0-15.1,6.6-15.1,14.9c0,3,0.9,5.8,2.4,8.1L114,41.8
			c-5.8-2.8-12.4-4.4-19.3-4.4c-4.6,0-9,0.6-13.2,1.9l6.7,13.4C90.3,52.3,92.4,52,94.7,52z M128.1,22.6c-0.2-0.7-0.4-1.5-0.4-2.3
			c0-4.1,3.4-7.4,7.5-7.4c4.1,0,7.4,3.4,7.4,7.5c0,3.8-2.8,6.8-6.5,7.3c-0.3,0-0.7,0.1-1,0.1C131.8,27.7,129.1,25.6,128.1,22.6z"/>
		
			<radialGradient id="SVGID_00000112605832780848611420000016338715499561738121_" cx="11.5201" cy="80.4972" r="78.123" gradientTransform="matrix(0.8642 0.5032 -0.5032 0.8642 77.3933 -13.7073)" gradientUnits="userSpaceOnUse">
			<stop  offset="0" style="stop-color:#00AEEF"/>
			<stop  offset="1" style="stop-color:#007EC6"/>
		</radialGradient>
		<path style="fill:url(#SVGID_00000112605832780848611420000016338715499561738121_);" d="M63.5,82.9c0.1-9.8,4.6-18.5,11.8-24.1
			l-6.6-13.3c-10.1,7-17.3,18-19.3,30.7l-14.8,0c-1.2-2.5-3.1-4.7-5.6-6.3c-7-4.4-16.3-2.2-20.7,4.9c-4.4,7.1-2.2,16.3,4.9,20.7
			c7.1,4.4,16.3,2.2,20.7-4.9c0.4-0.6,0.7-1.3,1-2l14.3,0c1.6,13.1,8.7,24.5,19,31.8l6.8-13.2C67.9,101.4,63.4,92.7,63.5,82.9z
			 M16.9,89c-3.5-2.2-4.6-6.7-2.4-10.2c2.1-3.5,6.7-4.6,10.2-2.4c0.7,0.4,1.3,1,1.8,1.6c2,2.4,2.4,5.9,0.6,8.6
			c-0.2,0.3-0.4,0.6-0.6,0.8C24.2,90.2,20.1,91,16.9,89z"/>
		
			<radialGradient id="SVGID_00000072995103919854576360000011164697319919896754_" cx="164.8102" cy="59.55" r="160.7914" gradientTransform="matrix(0.8642 0.5032 -0.5032 0.8642 77.3933 -13.7073)" gradientUnits="userSpaceOnUse">
			<stop  offset="0" style="stop-color:#C1D533"/>
			<stop  offset="1" style="stop-color:#007B36"/>
		</radialGradient>
		<path style="fill:url(#SVGID_00000072995103919854576360000011164697319919896754_);" d="M147.3,146.2c0-8.3-6.6-15.1-14.9-15.1
			c-0.7,0-1.5,0.1-2.2,0.2l-7.5-12.3c8.8-6.9,15-17,16.9-28.5l-14.9-0.1c-3.3,13.7-15.6,23.8-30.3,23.7c-2.2,0-4.4-0.3-6.5-0.7
			L81,126.7c4.2,1.3,8.6,2,13.2,2c6.3,0,12.3-1.2,17.7-3.5l7.8,12.7c-1.5,2.3-2.4,5.1-2.4,8.1c0,8.3,6.6,15.1,14.9,15.1
			C140.5,161.2,147.3,154.5,147.3,146.2z M125,146.2c0-0.8,0.2-1.6,0.4-2.4c1-2.9,3.8-5.1,7.1-5c0.3,0,0.7,0.1,1,0.1
			c3.6,0.5,6.4,3.6,6.4,7.4c0,4.1-3.4,7.4-7.5,7.4C128.3,153.6,125,150.3,125,146.2z"/>
	</g>
	<g>
		<path class="st3" d="M176.4,114.3c-4.5,0-8.3-1.1-11.4-3.3c-3.1-2.2-5.5-5.2-7.1-9c-1.6-3.8-2.4-8.1-2.4-12.8
			c0-4.7,0.8-8.9,2.4-12.7c1.6-3.8,3.9-6.8,7-9c3-2.2,6.7-3.3,11-3.3c4.4,0,8.2,1.1,11.2,3.3c3.1,2.2,5.4,5.1,6.9,8.9
			c1.6,3.8,2.3,8,2.3,12.8c0,4.8-0.8,9-2.3,12.8c-1.6,3.8-3.8,6.8-6.8,9S180.7,114.3,176.4,114.3z M176.7,109.4
			c3.6,0,6.5-0.9,8.9-2.7c2.4-1.8,4.1-4.2,5.3-7.3c1.2-3.1,1.7-6.5,1.7-10.4c0-3.9-0.6-7.4-1.8-10.4c-1.2-3.1-2.9-5.4-5.3-7.2
			c-2.3-1.7-5.3-2.6-8.8-2.6c-3.6,0-6.6,0.9-8.9,2.7c-2.3,1.8-4.1,4.2-5.2,7.2c-1.1,3-1.7,6.5-1.7,10.3c0,3.8,0.6,7.3,1.8,10.4
			c1.2,3.1,2.9,5.5,5.3,7.3S173.2,109.4,176.7,109.4z M192.6,112.9V76.3h-0.4V49.6h5.1v63.4H192.6z"/>
		<path class="st3" d="M225.6,114.3c-4.7,0-8.7-1.1-12-3.2c-3.3-2.1-5.8-5.1-7.5-8.9c-1.7-3.8-2.6-8.1-2.6-13.1
			c0-5,0.9-9.3,2.6-13.1c1.8-3.8,4.3-6.7,7.6-8.8c3.3-2.1,7.3-3.1,11.9-3.1c4.7,0,8.7,1.1,12,3.2c3.3,2.1,5.8,5.1,7.5,8.8
			c1.7,3.8,2.6,8.1,2.6,13c0,5-0.9,9.4-2.6,13.2s-4.3,6.7-7.6,8.8C234.2,113.2,230.2,114.3,225.6,114.3z M225.6,109.3
			c5.6,0,9.8-1.9,12.6-5.6c2.8-3.8,4.2-8.6,4.2-14.6c0-6.1-1.4-11-4.2-14.6c-2.8-3.6-7-5.5-12.5-5.5c-3.8,0-6.9,0.9-9.4,2.6
			c-2.5,1.7-4.3,4.1-5.5,7.1c-1.2,3-1.8,6.5-1.8,10.4c0,6.1,1.4,11,4.2,14.7C215.9,107.5,220.1,109.3,225.6,109.3z"/>
		<path class="st3" d="M250.3,70v-4.6h30.5V70H250.3z M280.8,112.9c-2.5,0.6-5,0.8-7.5,0.6c-2.5-0.1-4.7-0.7-6.6-1.7
			c-1.9-1-3.4-2.5-4.3-4.6c-0.8-1.7-1.2-3.4-1.3-5.1s-0.1-3.7-0.1-5.9V52.2h5.1v44.1c0,2,0,3.6,0.1,5c0,1.3,0.3,2.5,0.9,3.6
			c1.1,2,2.7,3.2,5,3.7c2.3,0.4,5.2,0.4,8.8-0.2V112.9z"/>
		<path class="st3" d="M310.3,114.3c-4.9,0-9-1.1-12.4-3.3c-3.4-2.2-6-5.2-7.8-8.9c-1.8-3.8-2.7-8.1-2.8-12.9c0-4.9,1-9.2,2.8-13
			c1.8-3.8,4.5-6.7,7.9-8.9c3.4-2.1,7.6-3.2,12.4-3.2c5.2,0,9.6,1.3,13.3,3.9c3.7,2.6,6.1,6.1,7.3,10.6l-9.2,2.6
			c-0.9-2.7-2.4-4.7-4.5-6.2c-2.1-1.5-4.4-2.2-7.1-2.2c-3,0-5.5,0.7-7.4,2.1c-1.9,1.4-3.4,3.4-4.3,5.8c-0.9,2.5-1.4,5.3-1.5,8.5
			c0,4.9,1.2,8.9,3.4,11.9c2.2,3,5.5,4.5,9.8,4.5c3,0,5.4-0.7,7.2-2c1.8-1.4,3.2-3.3,4.2-5.9l9.3,2.2c-1.6,4.6-4.1,8.2-7.7,10.7
			C319.7,113,315.4,114.3,310.3,114.3z"/>
		<path class="st3" d="M359.8,114.3c-4.7,0-8.9-1-12.4-3.1c-3.6-2.1-6.3-5-8.3-8.7c-2-3.7-3-8-3-12.9c0-5.2,1-9.7,2.9-13.5
			c2-3.8,4.7-6.8,8.2-8.8c3.5-2.1,7.6-3.1,12.2-3.1c4.8,0,9,1.1,12.4,3.4c3.4,2.2,5.9,5.4,7.6,9.6c1.7,4.1,2.4,9.1,2,14.7h-9.2v-3.3
			c-0.1-5.5-1.1-9.6-3.1-12.2c-2-2.6-5.1-4-9.3-4c-4.6,0-8.1,1.5-10.4,4.4c-2.3,2.9-3.5,7.1-3.5,12.6c0,5.2,1.2,9.3,3.5,12.1
			c2.3,2.9,5.7,4.3,10,4.3c2.9,0,5.4-0.7,7.5-2c2.1-1.3,3.7-3.2,4.9-5.6l9,2.9c-1.8,4.3-4.7,7.5-8.4,9.9
			C368.5,113.1,364.4,114.3,359.8,114.3z M342.8,91.8v-7.2h33.9v7.2H342.8z"/>
		<path class="st3" d="M390.3,112.9V48.2h9.2v64.7H390.3z"/>
		<path class="st3" d="M413.6,112.9V48.2h9.2v64.7H413.6z"/>
		<path class="st3" d="M454.2,114.2c-5.8,0-10.5-1.3-14.1-3.8s-5.9-6.1-6.7-10.8l9.4-1.5c0.6,2.5,1.9,4.4,4.1,5.8
			c2.1,1.4,4.8,2.1,7.9,2.1c2.9,0,5.1-0.6,6.8-1.8c1.6-1.2,2.4-2.8,2.4-4.8c0-1.2-0.3-2.2-0.9-2.9c-0.6-0.7-1.8-1.5-3.6-2.1
			c-1.8-0.7-4.6-1.5-8.3-2.5c-4.1-1.1-7.3-2.2-9.7-3.4c-2.4-1.2-4.1-2.6-5.1-4.3c-1-1.6-1.5-3.6-1.5-5.9c0-2.9,0.8-5.4,2.3-7.5
			c1.5-2.1,3.7-3.8,6.4-5c2.8-1.2,6-1.8,9.8-1.8c3.6,0,6.9,0.6,9.7,1.7s5.2,2.8,6.9,4.9c1.8,2.1,2.8,4.6,3.2,7.4l-9.4,1.7
			c-0.3-2.3-1.4-4.1-3.2-5.4c-1.8-1.3-4.2-2-7.1-2.2c-2.8-0.1-5,0.3-6.8,1.4c-1.7,1-2.6,2.5-2.6,4.3c0,1.1,0.3,2,1,2.7
			c0.7,0.7,1.9,1.4,3.9,2.1c1.9,0.7,4.7,1.5,8.5,2.4c4,1,7.2,2.2,9.5,3.4c2.3,1.2,4,2.7,5,4.4c1,1.7,1.5,3.8,1.5,6.2
			c0,4.7-1.7,8.4-5.1,11C464.9,112.9,460.2,114.2,454.2,114.2z"/>
	</g>
</g>
</svg>
