<svg width="32" height="32" viewBox="0 0 32 32" fill="none" xmlns="http://www.w3.org/2000/svg">
<path fill-rule="evenodd" clip-rule="evenodd" d="M31.8673 1.88258C32.2867 1.01072 31.6514 0 30.6839 0H15.4412C14.9417 0 14.4855 0.283346 14.2641 0.731063L9.43075 10.5041C9.43036 10.5049 9.43093 10.5058 9.43181 10.5058V10.5058H1.31477C0.356893 10.5058 -0.278709 11.4982 0.121926 12.3683L4.05244 20.9043C4.26685 21.3699 4.73263 21.6682 5.24528 21.6682H13.7517C13.9392 21.6682 14.049 21.9266 13.9693 22.0962V22.0962L10.2956 29.9205C9.88996 30.7844 10.5123 31.7788 11.4666 31.7917L26.8148 31.9986C27.3258 32.0055 27.7943 31.7153 28.0159 31.2548L31.8688 23.2467C32.2879 22.3756 31.654 21.3655 30.6873 21.3641L19.8651 21.3481C19.3424 21.3473 18.8699 21.0367 18.6621 20.5571L15.124 12.3931C14.7465 11.522 15.3895 10.5506 16.3388 10.5577L26.8202 10.6364C27.3284 10.6402 27.7932 10.3505 28.0135 9.89258L31.8673 1.88258Z" fill="#584EFE"/>
</svg>
