<?xml version="1.0" encoding="utf-8"?>
<!-- Generator: Adobe Illustrator 27.9.3, SVG Export Plug-In . SVG Version: 9.03 Build 53313)  -->
<svg version="1.1" id="Layer_1" xmlns="http://www.w3.org/2000/svg" xmlns:xlink="http://www.w3.org/1999/xlink" x="0px" y="0px"
	 viewBox="0 0 417.4 113" style="enable-background:new 0 0 417.4 113;" xml:space="preserve">
<style type="text/css">
	.st0{fill:#BCBEC0;}
	.st1{fill:url(#SVGID_1_);}
	.st2{fill:url(#SVGID_00000140717167515641071220000003033921684300057499_);}
</style>
<g>
	<g>
		<path class="st0" d="M141,74.3c-4.9,0-8.8-1.4-11.6-4.2c-2.9-2.8-4.4-6.8-4.6-12c0-0.4-0.1-1-0.1-1.7c0-0.7,0-1.2,0.1-1.6
			c0.2-3.3,0.9-6.2,2.3-8.6c1.3-2.4,3.2-4.3,5.6-5.6c2.4-1.3,5.2-2,8.4-2c3.6,0,6.6,0.7,9,2.2c2.4,1.5,4.3,3.5,5.5,6.2
			c1.2,2.6,1.9,5.7,1.9,9.1v1.4c0,0.4-0.2,0.8-0.5,1.1c-0.3,0.3-0.7,0.5-1.2,0.5h-22c0,0.3,0,0.4,0,0.5c0,1.5,0.3,3,0.9,4.3
			c0.6,1.3,1.4,2.3,2.4,3.1c1.1,0.8,2.4,1.2,3.9,1.2c1.2,0,2.3-0.2,3.1-0.6c0.8-0.4,1.5-0.8,2.1-1.3c0.5-0.5,0.9-0.9,1.1-1.2
			c0.4-0.5,0.7-0.8,1-1c0.2-0.1,0.6-0.2,1.1-0.2h5.7c0.4,0,0.8,0.1,1.1,0.4c0.3,0.3,0.4,0.6,0.4,1c0,0.7-0.4,1.6-1.1,2.6
			c-0.7,1-1.7,2-2.9,3c-1.3,1-2.9,1.8-4.8,2.4C145.7,74,143.5,74.3,141,74.3z M133.7,53.5h14.6v-0.2c0-1.7-0.3-3.2-0.9-4.5
			c-0.6-1.3-1.4-2.3-2.5-3c-1.1-0.7-2.4-1.1-4-1.1c-1.5,0-2.9,0.4-4,1.1c-1.1,0.8-1.9,1.8-2.5,3c-0.6,1.3-0.8,2.8-0.8,4.5V53.5z"/>
		<path class="st0" d="M179.2,74.3c-3.2,0-6-0.6-8.4-1.8c-2.4-1.2-4.3-2.9-5.6-5.2c-1.3-2.3-2.1-5-2.2-8.2c0-0.7-0.1-1.5-0.1-2.6
			c0-1.1,0-2,0.1-2.7c0.1-3.2,0.9-6,2.2-8.2c1.3-2.3,3.2-4,5.6-5.2c2.4-1.2,5.2-1.8,8.4-1.8c2.8,0,5.2,0.4,7.2,1.2
			c2,0.8,3.6,1.8,4.9,3c1.3,1.2,2.2,2.4,2.9,3.7c0.6,1.3,1,2.5,1,3.5c0,0.5-0.1,0.9-0.4,1.2c-0.3,0.3-0.7,0.4-1.2,0.4h-5.8
			c-0.4,0-0.8-0.1-1-0.3c-0.2-0.2-0.5-0.6-0.7-1c-0.7-1.8-1.5-3-2.6-3.7c-1.1-0.7-2.5-1.1-4.1-1.1c-2.2,0-4,0.7-5.3,2.1
			c-1.3,1.4-2,3.6-2.1,6.6c-0.1,1.7-0.1,3.2,0,4.6c0.1,3,0.8,5.2,2.1,6.6c1.3,1.4,3.1,2.1,5.3,2.1c1.7,0,3.1-0.4,4.2-1.1
			s1.9-2,2.6-3.7c0.2-0.4,0.5-0.8,0.7-1c0.2-0.2,0.6-0.3,1-0.3h5.8c0.4,0,0.8,0.1,1.2,0.4c0.3,0.3,0.5,0.7,0.4,1.2
			c0,0.8-0.3,1.7-0.6,2.7c-0.4,1-1,2-1.8,3c-0.8,1-1.8,2-3.1,2.8c-1.2,0.9-2.7,1.6-4.5,2.1C183.6,74,181.5,74.3,179.2,74.3z"/>
		<path class="st0" d="M203.8,73.7c-0.4,0-0.8-0.2-1.1-0.5c-0.3-0.3-0.5-0.7-0.5-1.1V28.3c0-0.4,0.2-0.8,0.5-1.1
			c0.3-0.3,0.7-0.5,1.1-0.5h5.9c0.5,0,0.9,0.2,1.2,0.5c0.3,0.3,0.4,0.7,0.4,1.1v15.1c1.2-1.4,2.6-2.6,4.4-3.4
			c1.7-0.9,3.8-1.3,6.4-1.3c2.7,0,5,0.6,7,1.8c2,1.2,3.6,2.9,4.7,5.1c1.1,2.2,1.7,4.9,1.7,7.9v18.6c0,0.4-0.2,0.8-0.5,1.1
			c-0.3,0.3-0.7,0.5-1.1,0.5h-6c-0.4,0-0.8-0.2-1.1-0.5c-0.3-0.3-0.5-0.7-0.5-1.1V53.9c0-2.6-0.6-4.6-1.9-6
			c-1.3-1.5-3.1-2.2-5.5-2.2c-2.3,0-4.1,0.7-5.5,2.2c-1.4,1.5-2.1,3.5-2.1,6v18.2c0,0.4-0.1,0.8-0.4,1.1s-0.7,0.5-1.2,0.5H203.8z"/>
		<path class="st0" d="M259,74.3c-3.5,0-6.5-0.6-8.9-1.9c-2.4-1.2-4.2-3-5.5-5.2c-1.3-2.2-2-4.9-2.2-7.9c0-0.8-0.1-1.8-0.1-2.9
			c0-1.1,0-2.1,0.1-2.9c0.2-3,0.9-5.7,2.2-7.9c1.3-2.2,3.2-4,5.6-5.2c2.4-1.2,5.3-1.9,8.8-1.9s6.4,0.6,8.8,1.9
			c2.4,1.2,4.3,3,5.6,5.2c1.3,2.2,2,4.9,2.2,7.9c0,0.8,0.1,1.8,0.1,2.9c0,1.1,0,2.1-0.1,2.9c-0.2,3-0.9,5.6-2.2,7.9
			c-1.3,2.3-3.1,4-5.5,5.2C265.5,73.7,262.5,74.3,259,74.3z M259,67.8c2.3,0,4.1-0.7,5.4-2.2c1.3-1.5,2-3.7,2.1-6.5
			c0-0.7,0.1-1.5,0.1-2.6s0-1.9-0.1-2.6c-0.1-2.8-0.8-5-2.1-6.5c-1.3-1.5-3.1-2.3-5.4-2.3c-2.3,0-4.1,0.8-5.4,2.3
			c-1.3,1.5-2,3.7-2.1,6.5c0,0.7-0.1,1.5-0.1,2.6s0,1.9,0.1,2.6c0.1,2.9,0.8,5,2.1,6.5C254.8,67,256.6,67.8,259,67.8z"/>
		<path class="st0" d="M285,86.2c-0.4,0-0.8-0.1-1.1-0.4c-0.3-0.3-0.4-0.7-0.4-1.1V40.8c0-0.4,0.1-0.8,0.4-1.1
			c0.3-0.3,0.6-0.4,1.1-0.4h3c0.4,0,0.8,0.1,1.1,0.4c0.3,0.3,0.4,0.7,0.4,1.1v2.9c1.1-1.5,2.5-2.7,4.2-3.6c1.8-1,4-1.5,6.6-1.5
			c2.5,0,4.6,0.4,6.3,1.3c1.7,0.8,3.2,2,4.3,3.4c1.1,1.5,2,3.1,2.5,5c0.6,1.9,0.9,3.8,0.9,6c0,0.7,0.1,1.5,0.1,2.2
			c0,0.8,0,1.5-0.1,2.3c0,2.1-0.4,4-0.9,5.9c-0.6,1.9-1.4,3.5-2.5,5c-1.1,1.4-2.6,2.6-4.3,3.4c-1.7,0.9-3.8,1.3-6.3,1.3
			c-2.6,0-4.7-0.5-6.5-1.4c-1.7-0.9-3.2-2.1-4.3-3.5v15.3c0,0.4-0.1,0.8-0.4,1.1c-0.3,0.3-0.6,0.4-1.1,0.4H285z M299.1,69
			c2.3,0,4.1-0.5,5.4-1.5c1.3-1,2.2-2.3,2.8-3.9c0.6-1.6,0.9-3.3,1-5.2c0-1.3,0-2.6,0-3.8c-0.1-1.9-0.4-3.6-1-5.2
			c-0.6-1.6-1.5-2.9-2.8-3.9c-1.3-1-3.1-1.5-5.4-1.5c-2.2,0-3.9,0.5-5.3,1.5c-1.3,1-2.3,2.3-3,3.9c-0.6,1.6-1,3.2-1.1,4.8
			c0,0.7-0.1,1.5-0.1,2.5c0,1,0,1.8,0.1,2.6c0,1.5,0.4,3.1,1.1,4.6c0.7,1.5,1.7,2.7,3.1,3.7C295.3,68.5,297,69,299.1,69z"/>
		<path class="st0" d="M332.5,74.3c-2.2,0-4.2-0.4-6-1.3c-1.8-0.9-3.3-2.1-4.4-3.6c-1.1-1.5-1.7-3.2-1.7-5.1c0-3,1.2-5.5,3.7-7.3
			c2.5-1.8,5.7-3,9.7-3.6l9.9-1.4v-1.9c0-2.1-0.6-3.8-1.8-5c-1.2-1.2-3.2-1.8-5.9-1.8c-2,0-3.6,0.4-4.8,1.2c-1.2,0.8-2.1,1.8-2.5,3
			c-0.3,0.7-0.7,1-1.4,1h-3c-0.5,0-0.9-0.1-1.1-0.4c-0.2-0.3-0.4-0.6-0.4-1c0-0.7,0.3-1.5,0.8-2.4c0.5-1,1.3-1.9,2.3-2.8
			c1.1-0.9,2.4-1.7,4.1-2.3c1.7-0.6,3.7-1,6.1-1c2.6,0,4.9,0.3,6.7,1c1.8,0.7,3.2,1.6,4.3,2.7c1,1.1,1.8,2.4,2.2,3.9
			c0.5,1.5,0.7,2.9,0.7,4.4v21.4c0,0.4-0.1,0.8-0.4,1.1c-0.3,0.3-0.7,0.4-1.1,0.4h-3c-0.5,0-0.9-0.1-1.1-0.4
			c-0.3-0.3-0.4-0.7-0.4-1.1v-2.8c-0.6,0.8-1.3,1.6-2.3,2.3c-1,0.8-2.2,1.4-3.6,1.9C336.4,74.1,334.6,74.3,332.5,74.3z M333.9,69.4
			c1.8,0,3.5-0.4,5-1.2c1.5-0.8,2.7-2,3.5-3.6c0.9-1.6,1.3-3.7,1.3-6.2v-1.9l-7.7,1.1c-3.1,0.4-5.5,1.2-7.1,2.2
			c-1.6,1-2.4,2.3-2.4,3.9c0,1.2,0.4,2.3,1.1,3.1c0.7,0.8,1.7,1.4,2.8,1.8C331.5,69.2,332.7,69.4,333.9,69.4z"/>
		<path class="st0" d="M360.9,73.7c-0.4,0-0.8-0.1-1.1-0.4c-0.3-0.3-0.4-0.7-0.4-1.1V40.8c0-0.4,0.1-0.8,0.4-1.1
			c0.3-0.3,0.7-0.5,1.1-0.5h3c0.4,0,0.8,0.2,1.1,0.5c0.3,0.3,0.5,0.7,0.5,1.1v2.9c0.9-1.5,2.1-2.6,3.6-3.4s3.4-1.1,5.6-1.1h2.6
			c0.4,0,0.8,0.1,1.1,0.4c0.3,0.3,0.4,0.7,0.4,1.1v2.7c0,0.4-0.1,0.8-0.4,1.1c-0.3,0.3-0.6,0.4-1.1,0.4h-4c-2.4,0-4.3,0.7-5.6,2.1
			c-1.4,1.4-2,3.3-2,5.7v19.5c0,0.4-0.2,0.8-0.5,1.1c-0.3,0.3-0.7,0.4-1.1,0.4H360.9z"/>
		<path class="st0" d="M386.1,73.7c-0.4,0-0.8-0.1-1.1-0.4c-0.3-0.3-0.4-0.7-0.4-1.1V28.2c0-0.4,0.1-0.8,0.4-1.1
			c0.3-0.3,0.6-0.4,1.1-0.4h3.1c0.4,0,0.8,0.1,1.1,0.4c0.3,0.3,0.4,0.7,0.4,1.1v23l13-10.9c0.5-0.4,0.9-0.7,1.2-0.9
			c0.3-0.2,0.8-0.2,1.4-0.2h3.5c0.4,0,0.7,0.1,1,0.4c0.3,0.3,0.4,0.6,0.4,1c0,0.2-0.1,0.4-0.2,0.6c-0.1,0.2-0.3,0.4-0.6,0.7
			l-15.3,12.7l16.9,16.5c0.5,0.4,0.8,0.8,0.8,1.2c0,0.4-0.1,0.7-0.4,1c-0.3,0.3-0.6,0.4-1,0.4h-3.4c-0.7,0-1.1-0.1-1.5-0.2
			c-0.3-0.2-0.7-0.5-1.2-0.9l-14.8-14.1v13.7c0,0.4-0.1,0.8-0.4,1.1c-0.3,0.3-0.7,0.4-1.1,0.4H386.1z"/>
	</g>
	<g>
		<radialGradient id="SVGID_1_" cx="18.7374" cy="12.2585" r="117.247" gradientUnits="userSpaceOnUse">
			<stop  offset="0" style="stop-color:#1B6F45"/>
			<stop  offset="0.1511" style="stop-color:#1E7C47"/>
			<stop  offset="0.4462" style="stop-color:#209F49"/>
			<stop  offset="0.5455" style="stop-color:#1DAF4B"/>
			<stop  offset="1" style="stop-color:#C1D42F"/>
		</radialGradient>
		<path class="st1" d="M15.3,88.4c9.9,13,24.9,20.7,41.2,20.9c16.3,0.3,31.6-6.9,41.9-19.6l0.5-0.6l-84.1-1.4L15.3,88.4z"/>
		
			<radialGradient id="SVGID_00000008131836704471018000000005110874075186154408_" cx="18.7378" cy="12.2543" r="117.25" gradientUnits="userSpaceOnUse">
			<stop  offset="0" style="stop-color:#1B6F45"/>
			<stop  offset="0.1511" style="stop-color:#1E7C47"/>
			<stop  offset="0.4462" style="stop-color:#209F49"/>
			<stop  offset="0.5455" style="stop-color:#1DAF4B"/>
			<stop  offset="1" style="stop-color:#C1D42F"/>
		</radialGradient>
		<path style="fill:url(#SVGID_00000008131836704471018000000005110874075186154408_);" d="M58.3,3.5C29.1,3,5,26.4,4.5,55.6
			c-0.1,8.2,1.6,16.2,5.3,23.8l0.7-0.2l0.1-8.5l3.2-3.9l3,4l-0.2,9.5l4.7,0.1l0.2-9.5l3.2-3.9l3,4l-0.2,9.5l4.7,0.1l0.2-9.5l3.2-3.9
			l3,4l-0.2,9.5l4.7,0.1l0.2-9.5l3.2-3.9l3,4l-0.2,9.5l4.7,0.1l0.4-24.8l-0.6,0.5c-2.5,1.9-5.3,2.9-8.2,2.8
			c-7.3-0.1-13.1-6.2-13-13.5c0-1.5,0.3-2.9,0.8-4.4c2.6,2.8,6.2,4.4,10,4.5c1.8,0,3.5-0.3,5.5-1.2l-0.2-0.7c-1,0.2-1.9,0.3-2.8,0.3
			c-7.3-0.1-13.1-6.2-13-13.5c0.1-7.3,6.2-13.1,13.5-13c2.2,0,4.3,0.6,6.4,1.8l0.3,0.2l0.2-0.3c2.5-3.4,6.6-5.4,10.8-5.3
			c7.3,0.1,13.1,6.2,13,13.5c0,1.4-0.3,2.9-0.8,4.3c-4.4-1.7-9-0.9-12.7,1.6l0.4,0.7c1.8-0.8,3.6-1.1,5.4-1.1
			c7.3,0.1,13.1,6.2,13,13.5c-0.1,7.3-6.2,13.1-13.5,13c-2.7,0-5.2-0.9-7.5-2.7l-0.6-0.5L60.1,81l4.6,0.1l0.2-9.5l3.2-3.9l3,4
			l-0.2,9.5l4.7,0.1l0.2-9.5l3.2-3.9l3,4l-0.2,9.5l4.7,0.1l0.2-9.5l3.2-3.9l3,4l-0.2,9.5l4.7,0.1l0.2-9.5l3.2-3.9l3,4l-0.1,8.5
			l0.7,0.2c3.9-7.4,5.9-15.4,6.1-23.6C110.8,28.1,87.4,4,58.3,3.5z"/>
	</g>
</g>
</svg>
