<?xml version="1.0" encoding="utf-8"?>
<!-- Generator: Adobe Illustrator 27.9.3, SVG Export Plug-In . SVG Version: 9.03 Build 53313)  -->
<svg version="1.1" id="Layer_1" xmlns="http://www.w3.org/2000/svg" xmlns:xlink="http://www.w3.org/1999/xlink" x="0px" y="0px"
	 viewBox="0 0 837.9 176.3" style="enable-background:new 0 0 837.9 176.3;" xml:space="preserve">
<style type="text/css">
	.st0{fill:#323C3F;}
	.st1{fill:url(#SVGID_1_);}
	.st2{fill:url(#SVGID_00000160187633143396579020000005288653175761441927_);}
	.st3{fill:url(#SVGID_00000034076197946045809310000000944147289746390692_);}
	.st4{fill:url(#SVGID_00000016796347790118220130000003041538164002818691_);}
</style>
<g>
	<g>
		<path class="st0" d="M290.4,111.9c-21.2,0-27.4-6.5-27.4-24.6v-7.7c0-18.2,6.2-24.7,27.4-24.7h41.3v13.5h-40.7
			c-9.9,0-12.2,2.4-12.2,11.8v6.7c0,9.1,2.4,11.8,12.2,11.8h40.8v13.3H290.4z"/>
		<path class="st0" d="M369.9,111.9c-21.2,0-27.4-6.5-27.4-24.6v-7.7c0-18.2,6.2-24.7,27.4-24.7h19c21.3,0,27.5,6.5,27.5,24.8v7.6
			c0,18.1-6.2,24.6-27.5,24.6H369.9z M400.8,80.1c0-9.7-2.5-11.8-13.9-11.8h-14.8c-11.2,0-13.8,2.1-13.8,11.8v6.7
			c0,9.5,2.6,11.8,13.8,11.8h14.8c11.4,0,13.9-2.3,13.9-11.8V80.1z"/>
		<path class="st0" d="M475.4,54.9c21.3,0,27.5,6.5,27.5,24.7v7.7c0,18.1-6.2,24.6-27.5,24.6h-31.8v17h-15.7V79.6
			c0-18.2,6.2-24.7,27.5-24.7H475.4z M487.2,80c0-10-2.7-11.8-13.8-11.8h-17.5c-9.9,0-12.3,2.3-12.3,11.7v18.6h29.9
			c10.9,0,13.7-1.5,13.7-11.8V80z"/>
		<path class="st0" d="M541.6,111.9c-21.2,0-27.4-6.5-27.4-24.6v-7.7c0-18.2,6.2-24.7,27.4-24.7h19c21.3,0,27.5,6.5,27.5,24.8v7.6
			c0,18.1-6.2,24.6-27.5,24.6H541.6z M572.4,80.1c0-9.7-2.5-11.8-13.9-11.8h-14.8c-11.2,0-13.8,2.1-13.8,11.8v6.7
			c0,9.5,2.6,11.8,13.8,11.8h14.8c11.4,0,13.9-2.3,13.9-11.8V80.1z"/>
		<path class="st0" d="M649.1,72.6l-16.9,35.2c-1.7,3.5-4.5,5.7-8.7,5.7c-4.7,0-6.9-2.2-8.4-5.7l-22.8-52.9h15.9l16.4,38.4
			l16.3-34.1c1.9-3.8,4-5.9,8.6-5.9c4.4,0,6.7,1.9,8.5,5.9l15.5,34.1l17.3-38.4h15.6l-23.9,52.9c-1.5,3.3-4.4,5.7-8.6,5.7
			c-4.1,0-6.9-2.4-8.5-5.7L649.1,72.6z"/>
		<path class="st0" d="M725.4,89.2v2.6c0,6.9,2.1,8.2,9.5,8.2h18.5v11.9h-18.5c-18.1,0-25.2-6.5-25.2-21.7V77.1
			c0-16.6,5.8-22.2,25.9-22.2h27.6c16.3,0,20.8,6.5,20.8,15.6v18.7H725.4z M768.4,71.7c0-3.8-1.7-4.7-6.4-4.7h-26.1
			c-7.9,0-10.4,0.8-10.4,9.1v3.1h42.9V71.7z"/>
		<path class="st0" d="M794.9,111.9v-33c0-17,7.5-24,26.7-24h10.2v12.7H822c-8.7,0-11.5,2.3-11.5,11.4v32.9H794.9z"/>
	</g>
	<g>
		<radialGradient id="SVGID_1_" cx="-62.3142" cy="-9.6192" r="550.9759" gradientUnits="userSpaceOnUse">
			<stop  offset="0" style="stop-color:#FFF200"/>
			<stop  offset="2.049065e-02" style="stop-color:#FFE600"/>
			<stop  offset="0.1353" style="stop-color:#E9B949"/>
			<stop  offset="0.2536" style="stop-color:#D7935D"/>
			<stop  offset="0.3728" style="stop-color:#CA7665"/>
			<stop  offset="0.493" style="stop-color:#C15D67"/>
			<stop  offset="0.6147" style="stop-color:#BA4768"/>
			<stop  offset="0.7382" style="stop-color:#B63468"/>
			<stop  offset="0.865" style="stop-color:#B32768"/>
			<stop  offset="1" style="stop-color:#B22268"/>
		</radialGradient>
		<rect x="97.5" y="62" class="st1" width="19.7" height="61.2"/>
		
			<radialGradient id="SVGID_00000091733447991520516640000008556402904682414515_" cx="-62.3095" cy="-9.619" r="550.9627" gradientUnits="userSpaceOnUse">
			<stop  offset="0" style="stop-color:#FFF200"/>
			<stop  offset="2.049065e-02" style="stop-color:#FFE600"/>
			<stop  offset="0.1353" style="stop-color:#E9B949"/>
			<stop  offset="0.2536" style="stop-color:#D7935D"/>
			<stop  offset="0.3728" style="stop-color:#CA7665"/>
			<stop  offset="0.493" style="stop-color:#C15D67"/>
			<stop  offset="0.6147" style="stop-color:#BA4768"/>
			<stop  offset="0.7382" style="stop-color:#B63468"/>
			<stop  offset="0.865" style="stop-color:#B32768"/>
			<stop  offset="1" style="stop-color:#B22268"/>
		</radialGradient>
		
			<rect x="55.1" y="61.6" style="fill:url(#SVGID_00000091733447991520516640000008556402904682414515_);" width="18.8" height="61.2"/>
		
			<radialGradient id="SVGID_00000018216138498527752180000001847237006162313126_" cx="-62.3089" cy="-9.619" r="550.9639" gradientUnits="userSpaceOnUse">
			<stop  offset="0" style="stop-color:#FFF200"/>
			<stop  offset="2.049065e-02" style="stop-color:#FFE600"/>
			<stop  offset="0.1353" style="stop-color:#E9B949"/>
			<stop  offset="0.2536" style="stop-color:#D7935D"/>
			<stop  offset="0.3728" style="stop-color:#CA7665"/>
			<stop  offset="0.493" style="stop-color:#C15D67"/>
			<stop  offset="0.6147" style="stop-color:#BA4768"/>
			<stop  offset="0.7382" style="stop-color:#B63468"/>
			<stop  offset="0.865" style="stop-color:#B32768"/>
			<stop  offset="1" style="stop-color:#B22268"/>
		</radialGradient>
		
			<rect x="140.8" y="61.6" style="fill:url(#SVGID_00000018216138498527752180000001847237006162313126_);" width="19.2" height="61.2"/>
		
			<radialGradient id="SVGID_00000017516059095769480780000008570436452791486850_" cx="-62.3132" cy="-9.62" r="550.9758" gradientUnits="userSpaceOnUse">
			<stop  offset="0" style="stop-color:#FFF200"/>
			<stop  offset="2.049065e-02" style="stop-color:#FFE600"/>
			<stop  offset="0.1353" style="stop-color:#E9B949"/>
			<stop  offset="0.2536" style="stop-color:#D7935D"/>
			<stop  offset="0.3728" style="stop-color:#CA7665"/>
			<stop  offset="0.493" style="stop-color:#C15D67"/>
			<stop  offset="0.6147" style="stop-color:#BA4768"/>
			<stop  offset="0.7382" style="stop-color:#B63468"/>
			<stop  offset="0.865" style="stop-color:#B32768"/>
			<stop  offset="1" style="stop-color:#B22268"/>
		</radialGradient>
		<path style="fill:url(#SVGID_00000017516059095769480780000008570436452791486850_);" d="M229.2,90.5c0-6.8-3.3-12.3-7.5-12.9v-17
			h-16.2V37.6c0-12.2-10.1-21.8-21.8-21.8h-59.5c-3.5-5.8-9.8-9.8-17-9.8c-7.3,0-13.6,4-17.1,9.8H30.7c-12.3,0-21.9,9.6-21.9,21.8
			v109.3c0,11.8,9.6,21.9,21.9,21.9h60.9c3.7,4.6,9.2,7.6,15.6,7.6c6.3,0,11.9-3,15.6-7.6h60.9c11.8,0,21.8-10,21.8-21.9v-24h16.2
			v-19.4C225.9,102.8,229.2,97.3,229.2,90.5z M183.7,146.8h-59.1c-3.4-6.1-9.9-10.3-17.4-10.3c-7.5,0-14,4.2-17.4,10.3H30.7V37.6
			h60.5c3.6,4.9,9.4,8.2,16,8.2c6.6,0,12.4-3.3,16-8.2h60.5V146.8z"/>
	</g>
</g>
</svg>
