<?xml version="1.0" encoding="utf-8"?>
<!-- Generator: Adobe Illustrator 27.9.4, SVG Export Plug-In . SVG Version: 9.03 Build 54784)  -->
<svg version="1.1" id="Layer_1" xmlns="http://www.w3.org/2000/svg" xmlns:xlink="http://www.w3.org/1999/xlink" x="0px" y="0px"
	 viewBox="0 0 445 105" style="enable-background:new 0 0 445 105;" xml:space="preserve">
<style type="text/css">
	.st0{fill:#67686B;}
	.st1{fill:url(#SVGID_1_);}
	.st2{fill:url(#SVGID_00000158736396222542925430000003614022737287362707_);}
</style>
<g>
	<path class="st0" d="M116.6,69.9c-3.3,0-6.2-0.7-8.5-2.1c-2.3-1.4-4.1-3.4-5.4-5.9c-1.2-2.6-1.9-5.6-1.9-9.1c0-3.5,0.6-6.6,1.9-9.1
		c1.2-2.5,3-4.5,5.4-5.9s5.2-2.1,8.5-2.1c2.4,0,4.5,0.4,6.4,1.1c1.9,0.7,3.5,1.8,4.9,3.2l-1.5,3.1c-1.5-1.3-3-2.3-4.5-2.9
		c-1.5-0.6-3.2-0.9-5.2-0.9c-3.8,0-6.7,1.2-8.7,3.6c-2,2.4-3,5.7-3,10c0,4.3,1,7.6,3,10c2,2.4,4.9,3.6,8.7,3.6c2,0,3.7-0.3,5.2-0.9
		c1.5-0.6,3-1.6,4.5-3l1.5,3.2c-1.4,1.4-3,2.4-4.9,3.2C121.1,69.5,118.9,69.9,116.6,69.9z"/>
	<path class="st0" d="M134.4,69.5V36.1h3.9v30h16.9v3.4H134.4z"/>
	<path class="st0" d="M159.3,69.5V36.1h21.3v3.2h-17.5v11.6h16.4v3.3h-16.4v12h17.5v3.3H159.3z"/>
	<path class="st0" d="M184.8,69.5l14.7-33.4h3.4l15,33.4h-4.1l-4.2-9.5l1.8,1H191l1.9-1l-4.1,9.5H184.8z M201.2,40.6l-7.7,18
		l-1.1-0.9H210l-0.9,0.9L201.2,40.6L201.2,40.6z"/>
	<path class="st0" d="M222,69.5V36.1h3.1l21.4,28.4h-1.1V36.1h3.6v33.4h-3L224.6,41h1v28.4H222z"/>
	<path class="st0" d="M255,69.5V36.1h22.5v4.8h-16.6v9.2h15.5v4.8h-15.5v9.7h16.6v4.8H255z"/>
	<path class="st0" d="M283.2,69.5V36.1h4.6l19.4,25.1H306V36.1h5.7v33.4h-4.6l-19.3-25.1h1.2v25.1H283.2z"/>
	<path class="st0" d="M318.1,69.5V36.1h22.5v4.8h-16.6v9.2h15.5v4.8h-15.5v9.7h16.6v4.8H318.1z"/>
	<path class="st0" d="M346.3,69.5V36.1h14.6c3.7,0,6.5,0.9,8.5,2.6c2,1.7,3,4.2,3,7.3c0,2.1-0.5,3.8-1.4,5.3
		c-0.9,1.5-2.2,2.6-3.9,3.3s-3.6,1.2-5.9,1.2l0.7-0.9h1.6c1.3,0,2.5,0.3,3.6,1c1,0.7,1.9,1.8,2.6,3.2l4.9,10.5h-6.7l-4.9-10.9
		c-0.4-1.1-1.1-1.8-2-2.2s-2-0.5-3.2-0.5h-5.2v13.6H346.3z M352.4,51.4h7.5c2.1,0,3.8-0.5,4.9-1.4c1.1-0.9,1.7-2.2,1.7-4
		c0-1.7-0.6-3-1.7-3.9c-1.1-0.9-2.8-1.3-4.9-1.3h-7.5V51.4z"/>
	<path class="st0" d="M394.7,69.9c-3.8,0-6.9-0.7-9.5-2.1c-2.6-1.4-4.5-3.4-5.8-5.9c-1.3-2.6-1.9-5.6-1.9-9.1c0-3.5,0.7-6.6,2.1-9.2
		c1.4-2.6,3.4-4.6,6-6c2.6-1.4,5.7-2.1,9.4-2.1c2.4,0,4.6,0.3,6.4,1c1.8,0.6,3.4,1.6,4.8,2.8l-2,4.7c-1-0.8-2-1.4-2.9-1.9
		c-0.9-0.5-1.9-0.8-2.8-1c-1-0.2-2.1-0.3-3.4-0.3c-3.7,0-6.4,1-8.3,3.1c-1.9,2.1-2.8,5-2.8,8.9c0,3.9,0.9,6.8,2.7,8.8
		c1.8,2,4.6,3,8.4,3c1.3,0,2.6-0.1,3.9-0.4c1.3-0.3,2.6-0.6,3.9-1.1l-1.1,2.6v-10h-7.8v-4.5h12.9v16.1c-1.5,0.8-3.4,1.4-5.5,1.8
		C399,69.7,396.8,69.9,394.7,69.9z"/>
	<path class="st0" d="M421.8,69.5V53.7l1.3,3.6l-14.4-21.3h7.1l9.9,15.2h-1.3l9.9-15.2h6.8l-14.3,21.3l1.2-3.6v15.8H421.8z"/>
</g>
<g>
	<radialGradient id="SVGID_1_" cx="26.6978" cy="-19.7588" r="116.1653" gradientUnits="userSpaceOnUse">
		<stop  offset="0" style="stop-color:#E1E43C"/>
		<stop  offset="0.1573" style="stop-color:#D9E13D"/>
		<stop  offset="0.4205" style="stop-color:#C1D83E"/>
		<stop  offset="0.7551" style="stop-color:#99CA41"/>
		<stop  offset="1" style="stop-color:#75C044"/>
	</radialGradient>
	<path class="st1" d="M66.2,63.1c-6.6,0-12.4,3.4-15.7,8.5V54.2h0v-8.4C61,43.5,69,34.2,69,22.9c0-1.9-0.2-3.8-0.7-5.6H57.6V4.9H50
		v12.4H41V4.9h-7.6v12.4H22.7C22.3,19.1,22,21,22,22.9c0,11.1,7.7,20.3,18,22.8v8.5v0.4v16.3c-3.4-4.7-9-7.8-15.2-7.8H6v18.8
		c0,10.4,8.4,18.8,18.8,18.8H40h3.6h3.8h3.1h15.7c10.4,0,18.8-8.4,18.8-18.8V63.1H66.2z M40,97.1H27.9c-6.7,0-12.1-5.4-12.1-12.1
		V72.8h12.1C34.6,72.8,40,78.3,40,85V97.1z M75.2,85c0,6.7-5.4,12.1-12.1,12.1H51V85c0-6.7,5.4-12.1,12.1-12.1h12.1V85z"/>
	<g>
		
			<radialGradient id="SVGID_00000145737619552064207880000009553716617389943961_" cx="53.2155" cy="-69.9789" r="74.2879" gradientTransform="matrix(0.9994 3.360000e-02 -3.360000e-02 0.9994 5.8859 115.0776)" gradientUnits="userSpaceOnUse">
			<stop  offset="0" style="stop-color:#E1E43C"/>
			<stop  offset="0.1573" style="stop-color:#D9E13D"/>
			<stop  offset="0.4205" style="stop-color:#C1D83E"/>
			<stop  offset="0.7551" style="stop-color:#99CA41"/>
			<stop  offset="1" style="stop-color:#75C044"/>
		</radialGradient>
		<path style="fill:url(#SVGID_00000145737619552064207880000009553716617389943961_);" d="M63.7,23.2c-0.3,8.8-5.4,16.2-12.7,19.9
			c8.4-2.2,14.7-9.7,15-18.8c0-1.4-0.1-2.7-0.3-4h-2.1C63.7,21.2,63.7,22.2,63.7,23.2z"/>
	</g>
</g>
</svg>
