<?xml version="1.0" encoding="utf-8"?>
<!-- Generator: Adobe Illustrator 27.9.4, SVG Export Plug-In . SVG Version: 9.03 Build 54784)  -->
<svg version="1.1" id="Layer_1" xmlns="http://www.w3.org/2000/svg" xmlns:xlink="http://www.w3.org/1999/xlink" x="0px" y="0px"
	 viewBox="0 0 439.5 85.5" style="enable-background:new 0 0 439.5 85.5;" xml:space="preserve">
<style type="text/css">
	.st0{fill:#9D1F60;}
	.st1{fill:#ED237A;}
	.st2{fill:#F6CF2E;}
</style>
<g>
	<g>
		<path d="M150.8,64.7c-3.2,0-5.8-0.7-8-2.1c-2.2-1.4-3.8-3.4-4.9-5.9c-1.1-2.5-1.7-5.4-1.7-8.7s0.6-6.3,1.8-8.8
			c1.1-2.5,2.8-4.5,5-5.9c2.2-1.4,4.8-2.1,8-2.1c3.1,0,5.8,0.7,8.1,2.2c2.3,1.5,4,3.5,4.9,6.1l-3.3,1.2c-0.8-2-2.1-3.5-3.8-4.6
			s-3.7-1.6-5.9-1.6c-2.5,0-4.6,0.6-6.2,1.7c-1.6,1.1-2.8,2.7-3.6,4.7s-1.2,4.3-1.3,7c0.1,4,1,7.3,2.9,9.8c1.8,2.5,4.6,3.7,8.2,3.7
			c2.2,0,4.2-0.5,5.9-1.6c1.7-1,2.9-2.5,3.8-4.5l3.3,1.1c-1.2,2.7-3,4.7-5.2,6.1C156.5,64,153.9,64.7,150.8,64.7z"/>
		<path d="M182.1,64.7c-3.2,0-5.8-0.7-8-2.1c-2.2-1.4-3.9-3.4-5-5.9c-1.2-2.5-1.7-5.4-1.7-8.7s0.6-6.2,1.8-8.7s2.9-4.5,5.1-5.9
			c2.2-1.4,4.8-2.1,7.9-2.1c3.2,0,5.8,0.7,8,2.1c2.2,1.4,3.9,3.4,5,5.9s1.7,5.4,1.7,8.7s-0.6,6.3-1.7,8.8c-1.2,2.5-2.8,4.5-5,5.9
			C187.9,64,185.2,64.7,182.1,64.7z M182.1,61.4c3.7,0,6.5-1.3,8.4-3.8s2.8-5.8,2.8-9.7c0-4.1-0.9-7.3-2.8-9.7
			c-1.9-2.4-4.6-3.6-8.4-3.6c-2.5,0-4.6,0.6-6.3,1.7S173,39,172.2,41s-1.2,4.3-1.2,6.9c0,4.1,0.9,7.3,2.8,9.8
			C175.7,60.2,178.4,61.4,182.1,61.4z"/>
		<path d="M203.9,63.8V20.7h3.4v43.1H203.9z"/>
		<path d="M229.1,64.7c-3.2,0-5.8-0.7-8-2.1c-2.2-1.4-3.9-3.4-5-5.9c-1.2-2.5-1.7-5.4-1.7-8.7s0.6-6.2,1.8-8.7s2.9-4.5,5.1-5.9
			c2.2-1.4,4.8-2.1,7.9-2.1c3.2,0,5.8,0.7,8,2.1c2.2,1.4,3.9,3.4,5,5.9s1.7,5.4,1.7,8.7s-0.6,6.3-1.7,8.8c-1.2,2.5-2.8,4.5-5,5.9
			C234.9,64,232.2,64.7,229.1,64.7z M229.1,61.4c3.7,0,6.5-1.3,8.4-3.8s2.8-5.8,2.8-9.7c0-4.1-0.9-7.3-2.8-9.7
			c-1.9-2.4-4.6-3.6-8.4-3.6c-2.5,0-4.6,0.6-6.3,1.7S220,39,219.2,41s-1.2,4.3-1.2,6.9c0,4.1,0.9,7.3,2.8,9.8
			C222.7,60.2,225.4,61.4,229.1,61.4z"/>
		<path d="M250.3,63.8V32.1h3.1v7.6l-0.8-1c0.4-0.9,0.8-1.7,1.3-2.5s1.1-1.4,1.7-1.9c0.8-0.8,1.8-1.4,3-1.8s2.3-0.6,3.4-0.7
			c1.2-0.1,2.2,0,3.1,0.3v3.2c-1.3-0.3-2.6-0.4-4-0.2s-2.7,0.8-4,1.8c-1.1,0.9-1.9,2-2.3,3.3c-0.5,1.2-0.8,2.5-0.9,3.9
			c-0.1,1.4-0.2,2.7-0.2,4v15.7C253.7,63.8,250.3,63.8,250.3,63.8z"/>
		<path d="M271.9,63.8V32.1h5.5v9.2h0.7v22.5H271.9z M290.9,63.8V44.2c0-2.3-0.6-4.1-1.7-5.4c-1.2-1.3-2.7-2-4.7-2
			c-1.9,0-3.5,0.7-4.7,2S278,41.9,278,44l-2.9-1.9c0-2.1,0.5-3.9,1.5-5.5s2.3-2.9,4.1-3.8c1.7-0.9,3.6-1.4,5.8-1.4
			c2.2,0,4.2,0.5,5.8,1.4c1.6,0.9,2.8,2.3,3.6,4c0.8,1.7,1.2,3.7,1.2,5.9v21.2L290.9,63.8L290.9,63.8z M309.9,63.8V44
			c0-2.3-0.6-4.1-1.8-5.4c-1.2-1.3-2.7-1.9-4.6-1.9c-1.2,0-2.2,0.3-3.2,0.8s-1.8,1.3-2.3,2.4s-0.9,2.4-0.9,4l-3-1.5
			c0-2.2,0.4-4.2,1.4-5.9s2.3-3,4-3.9c1.7-0.9,3.6-1.4,5.7-1.4c3.4,0,6.1,1,8,3.1s2.8,4.8,2.8,8.2v21.2h-6.1V63.8z"/>
		<path d="M336.3,64.7c-3.2,0-5.9-0.7-8.2-2.1c-2.3-1.4-4.1-3.4-5.4-5.9s-1.9-5.4-1.9-8.7s0.6-6.2,1.9-8.7s3.1-4.5,5.4-5.9
			c2.3-1.4,5-2.1,8.2-2.1s5.9,0.7,8.2,2.1c2.3,1.4,4.1,3.4,5.4,5.9s1.9,5.4,1.9,8.7s-0.6,6.2-1.9,8.7s-3.1,4.5-5.4,5.9
			S339.4,64.7,336.3,64.7z M336.3,58.9c3,0,5.3-1,6.8-3.1c1.5-2,2.2-4.7,2.2-7.9c0-3.3-0.8-6-2.3-7.9c-1.5-2-3.8-3-6.8-3
			c-2.1,0-3.7,0.5-5.1,1.4c-1.3,0.9-2.3,2.2-3,3.8s-1,3.5-1,5.7c0,3.3,0.8,6,2.3,8C331.1,57.9,333.3,58.9,336.3,58.9z"/>
		<path d="M365.7,63.8l-11.5-31.7h6.2l8.4,24l8.4-24h6.2l-11.5,31.7H365.7z"/>
		<path d="M389.3,26.9v-6h6.1v6H389.3z M389.3,63.8V32.1h6.1v31.7H389.3z"/>
		<path d="M417.1,64.7c-3.2,0-5.9-0.7-8.3-2.1c-2.4-1.4-4.2-3.3-5.5-5.8s-2-5.3-2-8.6c0-3.5,0.7-6.5,2-9s3.1-4.5,5.4-5.9
			c2.3-1.4,5-2.1,8.1-2.1c3.2,0,6,0.7,8.2,2.2c2.3,1.5,4,3.6,5.1,6.4s1.6,6,1.3,9.8h-6.1v-2.2c0-3.7-0.7-6.4-2.1-8.2
			s-3.4-2.6-6.2-2.6c-3.1,0-5.4,1-6.9,2.9s-2.3,4.7-2.3,8.4c0,3.5,0.8,6.2,2.3,8.1c1.5,1.9,3.8,2.9,6.7,2.9c1.9,0,3.6-0.4,5-1.3
			c1.4-0.9,2.5-2.1,3.3-3.7l6,1.9c-1.2,2.8-3.1,5-5.6,6.6C423,63.9,420.2,64.7,417.1,64.7z M405.8,49.7v-4.8h22.6v4.8H405.8z"/>
	</g>
	<g>
		<path class="st0" d="M81.1,42.8c0-12-5.9-22.6-14.9-29.2c-9.6,6.5-16,17.4-16,29.9c0,12,5.9,22.6,14.9,29.2
			C74.8,66.2,81.1,55.2,81.1,42.8z M65.9,23.2c4.5,0,8.2,3.7,8.2,8.2s-3.7,8.2-8.2,8.2s-8.2-3.7-8.2-8.2S61.4,23.2,65.9,23.2z
			 M57.7,53.9c0-4.5,3.7-8.2,8.2-8.2s8.2,3.7,8.2,8.2s-3.7,8.2-8.2,8.2C61.4,62.1,57.7,58.4,57.7,53.9z"/>
		<path class="st1" d="M50.3,43.5c0-12.5,6.3-23.4,16-29.9c-6-4.3-13.3-6.8-21.2-6.8c-19.9,0-36,16.1-36,36s16.1,36,36,36
			c7.4,0,14.3-2.2,20-6.1C56.1,66.1,50.3,55.5,50.3,43.5z M45.1,11.6c4.5,0,8.2,3.7,8.2,8.2S49.6,28,45.1,28s-8.2-3.7-8.2-8.2
			C36.9,15.3,40.6,11.6,45.1,11.6z M25.4,62.1c-4.5,0-8.2-3.7-8.2-8.2s3.7-8.2,8.2-8.2s8.2,3.7,8.2,8.2
			C33.6,58.4,29.9,62.1,25.4,62.1z M25.4,39.6c-4.5,0-8.2-3.7-8.2-8.2s3.7-8.2,8.2-8.2s8.2,3.7,8.2,8.2
			C33.6,35.9,29.9,39.6,25.4,39.6z M45.1,74.9c-4.5,0-8.2-3.7-8.2-8.2s3.7-8.2,8.2-8.2s8.2,3.7,8.2,8.2
			C53.3,71.2,49.6,74.9,45.1,74.9z"/>
		<path class="st2" d="M86.2,7.5c-7.4,0-14.3,2.2-20,6.1c9,6.5,14.9,17.2,14.9,29.2c0,12.5-6.3,23.4-16,29.9
			c5.9,4.3,13.2,6.8,21.1,6.8c19.9,0,36-16.1,36-36S106.1,7.5,86.2,7.5z M107,23.2c4.5,0,8.2,3.7,8.2,8.2s-3.7,8.2-8.2,8.2
			s-8.2-3.7-8.2-8.2S102.5,23.2,107,23.2z M86.2,74.9c-4.5,0-8.2-3.7-8.2-8.2s3.7-8.2,8.2-8.2s8.2,3.7,8.2,8.2
			C94.5,71.2,90.8,74.9,86.2,74.9z M86.2,28c-4.5,0-8.2-3.7-8.2-8.2s3.7-8.2,8.2-8.2s8.2,3.7,8.2,8.2C94.5,24.3,90.8,28,86.2,28z
			 M107,62.1c-4.5,0-8.2-3.7-8.2-8.2s3.7-8.2,8.2-8.2s8.2,3.7,8.2,8.2C115.3,58.4,111.6,62.1,107,62.1z"/>
	</g>
</g>
</svg>
