<?xml version="1.0" encoding="utf-8"?>
<!-- Generator: Adobe Illustrator 27.9.4, SVG Export Plug-In . SVG Version: 9.03 Build 54784)  -->
<svg version="1.1" id="Layer_1" xmlns="http://www.w3.org/2000/svg" xmlns:xlink="http://www.w3.org/1999/xlink" x="0px" y="0px"
	 viewBox="0 0 576.7 138" style="enable-background:new 0 0 576.7 138;" xml:space="preserve">
<style type="text/css">
	.st0{fill:#567B8C;}
	.st1{fill:#00AEEF;}
</style>
<g>
	<g>
		<g>
			<path class="st0" d="M158.1,92.4V36.3h5.8v24.5h-0.6v31.7H158.1z M177.1,93.6c-3.9,0-7.2-1-9.8-2.9c-2.7-2-4.7-4.6-6.1-8
				s-2.1-7.1-2.1-11.3c0-4.3,0.7-8.1,2.1-11.4s3.4-6,6.1-7.9c2.7-1.9,6-2.9,10-2.9c3.8,0,7.2,1,9.9,2.9s4.9,4.6,6.3,8
				c1.5,3.4,2.2,7.1,2.2,11.3c0,4.2-0.7,8-2.2,11.4c-1.5,3.4-3.6,6-6.4,8S181,93.6,177.1,93.6z M176.5,88.3c2.9,0,5.4-0.7,7.3-2.2
				c2-1.5,3.4-3.5,4.4-6.1s1.5-5.4,1.5-8.6c0-3.2-0.5-6-1.4-8.6c-1-2.5-2.4-4.6-4.4-6c-2-1.5-4.5-2.2-7.5-2.2
				c-2.9,0-5.4,0.7-7.3,2.1c-1.9,1.4-3.4,3.4-4.4,6c-1,2.5-1.4,5.5-1.4,8.8c0,3.3,0.5,6.2,1.4,8.7c1,2.6,2.4,4.6,4.4,6
				S173.5,88.3,176.5,88.3z"/>
			<path class="st0" d="M206.7,92.4V35.1h5.7v57.4H206.7z"/>
			<path class="st0" d="M241.8,93.5c-2.5,0-4.7-0.4-6.6-1.2c-1.9-0.8-3.5-1.8-4.8-3.2c-1.3-1.3-2.4-2.8-3.2-4.5
				c-0.8-1.7-1.4-3.5-1.8-5.4c-0.4-1.9-0.5-3.8-0.5-5.7V50.3h5.8v21.5c0,2.3,0.2,4.5,0.7,6.4c0.4,2,1.2,3.7,2.1,5.2s2.2,2.6,3.8,3.4
				c1.5,0.8,3.4,1.2,5.6,1.2c2,0,3.8-0.4,5.4-1.1c1.5-0.7,2.8-1.7,3.9-3c1.1-1.3,1.9-2.9,2.4-4.8s0.8-4,0.8-6.4l4.1,0.9
				c0,4.3-0.8,7.9-2.3,10.9c-1.5,2.9-3.6,5.2-6.2,6.7C248.3,92.7,245.2,93.5,241.8,93.5z M256,92.4V82.1h-0.6V50.3h5.7v42.1H256z"/>
			<path class="st0" d="M291.4,93.6c-4.1,0-7.7-0.9-10.7-2.7c-3-1.8-5.3-4.4-7-7.7c-1.7-3.3-2.5-7.2-2.5-11.6
				c0-4.6,0.8-8.6,2.5-11.9c1.6-3.4,3.9-5.9,6.9-7.8c3-1.8,6.5-2.7,10.6-2.7c4.2,0,7.7,1,10.7,2.9c2.9,1.9,5.2,4.7,6.7,8.2
				c1.5,3.6,2.2,7.8,2.1,12.8h-5.9v-2c-0.1-5.5-1.3-9.6-3.5-12.4c-2.2-2.8-5.5-4.2-9.9-4.2c-4.5,0-8,1.5-10.4,4.4
				c-2.4,2.9-3.6,7.1-3.6,12.6c0,5.3,1.2,9.4,3.6,12.4c2.4,2.9,5.8,4.4,10.2,4.4c3,0,5.7-0.7,7.9-2.1c2.2-1.4,4-3.4,5.3-6l5.3,2.1
				c-1.7,3.7-4.1,6.5-7.4,8.5S295.5,93.6,291.4,93.6z M275.3,73v-4.8h32.2V73H275.3z"/>
			<path class="st0" d="M339.9,93.6c-4.3,0-8-0.9-11.2-2.8c-3.2-1.8-5.7-4.4-7.6-7.7c-1.8-3.3-2.7-7-2.7-11.3c0-4.6,0.9-8.6,2.7-12
				c1.8-3.4,4.2-6,7.4-7.9c3.1-1.9,6.8-2.8,10.9-2.8c4.4,0,8.1,1,11.1,3.1c3.1,2,5.3,4.9,6.8,8.6s2,8.1,1.7,13.1h-9.3v-3.4
				c0-4.6-0.8-7.9-2.4-10c-1.6-2.1-4.1-3.2-7.5-3.2c-3.9,0-6.7,1.2-8.6,3.6c-1.9,2.4-2.8,5.9-2.8,10.4c0,4.3,0.9,7.6,2.8,9.9
				c1.9,2.3,4.6,3.5,8.2,3.5c2.3,0,4.3-0.5,6-1.5c1.7-1,3-2.5,3.9-4.5l9.3,2.8c-1.6,3.8-4.1,6.8-7.5,8.9
				C347.7,92.6,344,93.6,339.9,93.6z M325.4,74v-7.1h29V74H325.4z"/>
			<path class="st0" d="M366.1,92.4V50.3h8.4v13.1h1.1v29.1H366.1z M395.3,92.4V72.2c0-1.3-0.1-2.8-0.3-4.4
				c-0.2-1.6-0.6-3.2-1.3-4.7c-0.7-1.5-1.7-2.7-3-3.7c-1.3-1-3.1-1.4-5.3-1.4c-1.2,0-2.4,0.2-3.6,0.6c-1.2,0.4-2.2,1.1-3.2,2
				c-0.9,1-1.7,2.2-2.3,3.9c-0.6,1.7-0.9,3.8-0.9,6.3l-5.6-2.4c0-3.6,0.7-6.8,2.1-9.8c1.4-2.9,3.4-5.2,6.1-7c2.7-1.7,6-2.6,10-2.6
				c3.1,0,5.7,0.5,7.7,1.6c2,1,3.6,2.4,4.8,4c1.2,1.6,2.1,3.3,2.7,5.2c0.6,1.8,0.9,3.5,1.1,5.2c0.2,1.6,0.3,2.9,0.3,4v23.5H395.3z"
				/>
			<path class="st0" d="M432.6,93.6c-4.3,0-8-0.9-11.2-2.8s-5.7-4.4-7.5-7.7c-1.8-3.3-2.7-7-2.7-11.3c0-4.6,0.9-8.6,2.7-12
				c1.8-3.4,4.2-6,7.4-7.9c3.1-1.9,6.8-2.8,10.9-2.8c4.4,0,8.1,1,11.1,3.1c3.1,2,5.3,4.9,6.8,8.6s2,8.1,1.7,13.1h-9.3v-3.4
				c0-4.6-0.8-7.9-2.4-10c-1.6-2.1-4.1-3.2-7.5-3.2c-3.8,0-6.7,1.2-8.6,3.6c-1.9,2.4-2.8,5.9-2.8,10.4c0,4.3,0.9,7.6,2.8,9.9
				c1.9,2.3,4.6,3.5,8.2,3.5c2.3,0,4.3-0.5,6-1.5c1.7-1,3-2.5,3.9-4.5l9.3,2.8c-1.6,3.8-4.1,6.8-7.5,8.9
				C440.4,92.6,436.7,93.6,432.6,93.6z M418.1,74v-7.1h29V74H418.1z"/>
			<path class="st0" d="M458.9,92.4V50.3h8.3v10.3l-1-1.3c0.5-1.4,1.2-2.7,2.1-3.8c0.9-1.2,1.9-2.1,3.1-2.9c1-0.7,2.2-1.3,3.5-1.7
				s2.6-0.7,3.9-0.7c1.3-0.1,2.6,0,3.9,0.2v8.8c-1.2-0.4-2.7-0.5-4.3-0.4c-1.6,0.1-3.1,0.6-4.4,1.4c-1.3,0.7-2.4,1.6-3.2,2.7
				c-0.8,1.1-1.4,2.3-1.8,3.7c-0.4,1.4-0.6,2.9-0.6,4.5v21.4H458.9z"/>
			<path class="st0" d="M505.3,93.6c-3.9,0-7.3-1-10.1-2.9c-2.9-2-5.1-4.6-6.7-8c-1.6-3.4-2.4-7.1-2.4-11.4c0-4.3,0.8-8.1,2.4-11.4
				s3.9-6,6.8-7.9c2.9-1.9,6.4-2.9,10.4-2.9c4,0,7.4,1,10.1,2.9c2.7,1.9,4.8,4.6,6.2,7.9c1.4,3.4,2.1,7.2,2.1,11.4
				c0,4.2-0.7,8-2.1,11.3c-1.4,3.4-3.5,6-6.3,8C512.9,92.6,509.4,93.6,505.3,93.6z M506.2,112.3c-2.3,0-4.6-0.4-6.7-1.1
				s-4.1-1.8-5.8-3.1c-1.7-1.4-3.1-3-4.2-4.9l8.7-4.3c0.8,1.5,1.9,2.7,3.4,3.4c1.5,0.7,3,1.1,4.7,1.1c2,0,3.7-0.3,5.2-1
				c1.5-0.7,2.7-1.7,3.6-3c0.8-1.3,1.2-3,1.2-5v-12h1.2v-32h8.2v44.2c0,1.1,0,2.1-0.1,3.1s-0.2,1.9-0.4,2.9c-0.6,2.7-1.8,5-3.6,6.7
				c-1.8,1.8-4,3.1-6.6,3.9S509.3,112.3,506.2,112.3z M506.8,85.2c2.5,0,4.6-0.6,6.1-1.7s2.7-2.8,3.4-4.9c0.7-2.1,1.1-4.5,1.1-7.2
				c0-2.8-0.4-5.2-1.1-7.2c-0.7-2.1-1.8-3.7-3.3-4.8c-1.5-1.2-3.5-1.7-5.9-1.7c-2.5,0-4.6,0.6-6.2,1.9c-1.6,1.2-2.8,2.9-3.6,5
				c-0.8,2.1-1.2,4.4-1.2,7c0,2.6,0.4,4.9,1.2,7c0.8,2.1,1.9,3.8,3.5,5C502.3,84.6,504.3,85.2,506.8,85.2z"/>
			<path class="st0" d="M542.1,111.2l8.1-22.3l0.2,6.6l-18.4-45.1h9.8l13,33.4h-2.5L565,50.3h9.4l-23.5,60.9H542.1z"/>
		</g>
	</g>
	<path class="st1" d="M134.2,79.9V58.2l-17.8-6.1c-0.5-1.3-1.1-2.6-1.7-3.9l8.5-16.8L107.9,16l-17,8.3c-1.3-0.6-2.6-1.2-3.9-1.7
		L81.1,4.8H59.4l-5.9,17.1c-1.7,0.6-3.4,1.2-5,2l-16-8.1L17.2,31.1l7.7,15.7c-0.9,1.8-1.7,3.7-2.4,5.6L6,57.9v21.7l16.5,5.7
		c0.3,1,0.7,1.9,1.1,2.9c0,0,0,0,0,0c0,0,0,0,0,0c0.4,0.9,0.8,1.8,1.2,2.7L17,106.5l15.3,15.3l15.7-7.7c0.9,0.4,1.9,0.9,2.8,1.3
		c0,0,0,0,0,0c0,0,0,0,0,0c0.9,0.4,1.9,0.7,2.8,1.1l5.4,16.5h21.7l5.7-16.5c1.9-0.7,3.8-1.5,5.6-2.4l15.6,7.9l15.3-15.3l-7.9-16.2
		c0.7-1.6,1.4-3.3,2-5L134.2,79.9z M70.1,101.1c-13.4,0-24.2-10.9-24.2-24.2c0-4.9,1.4-9.4,3.9-13.2l20.4-32l19.3,30.5
		c0.8,1.1,1.6,2.3,2.2,3.5l0,0c1.7,3.3,2.7,7.1,2.7,11.2C94.4,90.3,83.5,101.1,70.1,101.1z"/>
</g>
</svg>
