<?xml version="1.0" encoding="utf-8"?>
<!-- Generator: Adobe Illustrator 27.9.4, SVG Export Plug-In . SVG Version: 9.03 Build 54784)  -->
<svg version="1.1" id="Layer_1" xmlns="http://www.w3.org/2000/svg" xmlns:xlink="http://www.w3.org/1999/xlink" x="0px" y="0px"
	 viewBox="0 0 418.5 97.5" style="enable-background:new 0 0 418.5 97.5;" xml:space="preserve">
<style type="text/css">
	.st0{fill:url(#SVGID_1_);}
	.st1{fill:url(#SVGID_00000021809774819773025610000015123332102142310572_);}
</style>
<g>
	<g>
		<g>
			<path d="M115,79.3c-3,0-5.5-0.6-7.8-1.8c-2.2-1.2-3.9-2.9-5.1-5.2c-1.2-2.3-1.8-4.9-1.8-8c0-3.1,0.6-5.8,1.8-8
				c1.2-2.2,2.9-3.9,5.1-5.1c2.2-1.2,4.8-1.8,7.7-1.8c1.9,0,3.7,0.3,5.5,0.9c1.8,0.6,3.3,1.4,4.4,2.5l-2.2,4.9
				c-1-0.9-2.2-1.7-3.4-2.1c-1.3-0.5-2.5-0.7-3.7-0.7c-2.5,0-4.5,0.8-5.9,2.4s-2.1,3.9-2.1,6.9c0,3,0.7,5.4,2.1,7
				c1.4,1.6,3.4,2.4,5.9,2.4c1.2,0,2.4-0.2,3.7-0.7s2.4-1.2,3.5-2.1l2.2,4.9c-1.2,1.1-2.7,2-4.5,2.6C118.7,79,116.9,79.3,115,79.3z"
				/>
			<g>
				<path d="M131.6,78.7V36.8h7.1v18.9h-0.8c0.9-2,2.2-3.6,4-4.7s3.9-1.6,6.3-1.6c3.4,0,6,1,7.6,2.9c1.7,1.9,2.5,4.8,2.5,8.7v17.7
					h-7.1V61.4c0-2.2-0.4-3.9-1.3-4.9s-2.2-1.5-4.1-1.5c-2.2,0-3.9,0.7-5.2,2c-1.3,1.3-2,3.1-2,5.4v16.3H131.6z"/>
				<path d="M180.9,79.3c-4.8,0-8.6-1.3-11.3-4c-2.7-2.7-4.1-6.3-4.1-10.9c0-3,0.6-5.6,1.8-7.8c1.2-2.2,2.8-4,4.9-5.2
					c2.1-1.3,4.6-1.9,7.4-1.9c2.8,0,5.1,0.6,6.9,1.8c1.9,1.2,3.3,2.8,4.2,4.9c1,2.1,1.5,4.6,1.5,7.5v1.9h-20.9v-3.8h15.9l-1,0.8
					c0-2.7-0.6-4.7-1.7-6.1c-1.1-1.4-2.7-2.1-4.9-2.1c-2.4,0-4.2,0.8-5.4,2.5c-1.3,1.7-1.9,4-1.9,7v0.7c0,3.1,0.8,5.4,2.3,7
					c1.5,1.5,3.7,2.3,6.5,2.3c1.6,0,3.2-0.2,4.6-0.7c1.4-0.4,2.8-1.1,4.1-2.1l2.1,4.8c-1.4,1.1-3,2-4.9,2.6
					C185.1,79,183.1,79.3,180.9,79.3z"/>
				<path d="M199.4,78.7V36.8h7.1v25.4h0.1L218.2,50h8.6l-14.5,15.2l0.1-2.8l15.5,16.4H219l-12.5-12.9h-0.1v12.9H199.4z"/>
			</g>
		</g>
		<g>
			<path d="M232.4,91V56.9c0-1.1,0-2.2-0.1-3.4c-0.1-1.1-0.2-2.3-0.3-3.4h5l0.6,6.6h-0.6c0.6-2.2,1.8-3.9,3.6-5.2
				c1.9-1.3,4.1-1.9,6.7-1.9c2.5,0,4.8,0.6,6.7,1.8c1.9,1.2,3.4,2.9,4.4,5.1c1,2.2,1.6,4.9,1.6,7.9c0,3.1-0.5,5.7-1.6,8
				c-1,2.2-2.5,3.9-4.4,5.1c-1.9,1.2-4.1,1.8-6.7,1.8s-4.7-0.6-6.6-1.9c-1.8-1.3-3.1-3-3.7-5.1h0.6V91H232.4z M246,75.1
				c2.6,0,4.7-0.9,6.3-2.7s2.3-4.5,2.3-8c0-3.5-0.8-6.2-2.3-8c-1.6-1.8-3.6-2.7-6.3-2.7c-2.6,0-4.7,0.9-6.2,2.7
				c-1.5,1.8-2.3,4.4-2.3,8c0,3.5,0.8,6.2,2.3,8C241.3,74.2,243.4,75.1,246,75.1z"/>
			<path d="M280.9,79.2c-4.6,0-8.1-1.3-10.8-3.9c-2.6-2.6-4-6.2-4-10.8c0-3,0.6-5.7,1.7-7.9c1.2-2.2,2.8-3.9,4.8-5.2
				s4.4-1.8,7.2-1.8c2.6,0,4.8,0.6,6.7,1.7c1.8,1.1,3.2,2.7,4.2,4.8c0.9,2,1.4,4.5,1.4,7.3V65h-21.9v-3.1h18.4l-1,0.7
				c0-3-0.7-5.3-2-6.9c-1.3-1.6-3.2-2.4-5.8-2.4c-2.8,0-4.9,1-6.4,2.9s-2.3,4.5-2.3,7.8v0.5c0,3.5,0.9,6.1,2.6,7.9
				c1.7,1.8,4.1,2.7,7.2,2.7c1.7,0,3.3-0.2,4.8-0.7c1.5-0.5,2.9-1.3,4.3-2.4l1.7,3.6c-1.3,1.2-2.9,2.1-4.8,2.7S283,79.2,280.9,79.2z
				"/>
			<path d="M312.1,79.2c-2.8,0-5.2-0.6-7.3-1.8c-2-1.2-3.6-2.9-4.8-5.1s-1.7-4.8-1.7-7.9c0-3.1,0.6-5.7,1.7-7.9s2.7-3.9,4.8-5.1
				c2-1.2,4.5-1.8,7.3-1.8c2.8,0,5.2,0.6,7.3,1.8c2.1,1.2,3.7,2.9,4.8,5.1c1.1,2.2,1.7,4.8,1.7,7.9c0,3.1-0.6,5.7-1.7,7.9
				c-1.1,2.2-2.7,3.9-4.8,5.1C317.3,78.6,314.9,79.2,312.1,79.2z M312.1,75.1c2.6,0,4.6-0.9,6.2-2.7c1.6-1.8,2.3-4.5,2.3-8
				c0-3.5-0.8-6.2-2.3-8c-1.6-1.8-3.6-2.7-6.2-2.7c-2.6,0-4.7,0.9-6.2,2.7c-1.5,1.8-2.3,4.4-2.3,8c0,3.5,0.8,6.2,2.3,8
				C307.4,74.2,309.5,75.1,312.1,75.1z"/>
			<path d="M333.9,91V56.9c0-1.1,0-2.2-0.1-3.4s-0.2-2.3-0.3-3.4h5l0.6,6.6h-0.6c0.6-2.2,1.8-3.9,3.6-5.2c1.9-1.3,4.1-1.9,6.7-1.9
				c2.5,0,4.8,0.6,6.7,1.8c1.9,1.2,3.4,2.9,4.4,5.1c1,2.2,1.6,4.9,1.6,7.9c0,3.1-0.5,5.7-1.6,8c-1,2.2-2.5,3.9-4.4,5.1
				c-1.9,1.2-4.1,1.8-6.7,1.8c-2.5,0-4.7-0.6-6.6-1.9c-1.8-1.3-3.1-3-3.7-5.1h0.6V91H333.9z M347.6,75.1c2.6,0,4.7-0.9,6.3-2.7
				c1.6-1.8,2.3-4.5,2.3-8c0-3.5-0.8-6.2-2.3-8c-1.6-1.8-3.6-2.7-6.3-2.7c-2.6,0-4.7,0.9-6.2,2.7c-1.5,1.8-2.3,4.4-2.3,8
				c0,3.5,0.8,6.2,2.3,8C342.9,74.2,345,75.1,347.6,75.1z"/>
			<path d="M369.5,78.7V36.8h5.2v41.9H369.5z"/>
			<path d="M397.5,79.2c-4.6,0-8.1-1.3-10.8-3.9c-2.6-2.6-4-6.2-4-10.8c0-3,0.6-5.7,1.7-7.9c1.2-2.2,2.8-3.9,4.8-5.2
				s4.4-1.8,7.2-1.8c2.6,0,4.8,0.6,6.7,1.7c1.8,1.1,3.2,2.7,4.2,4.8c0.9,2,1.4,4.5,1.4,7.3V65h-21.9v-3.1h18.4l-1,0.7
				c0-3-0.7-5.3-2-6.9c-1.3-1.6-3.2-2.4-5.8-2.4c-2.8,0-4.9,1-6.4,2.9s-2.3,4.5-2.3,7.8v0.5c0,3.5,0.9,6.1,2.6,7.9
				c1.7,1.8,4.1,2.7,7.2,2.7c1.7,0,3.3-0.2,4.8-0.7c1.5-0.5,2.9-1.3,4.3-2.4l1.7,3.6c-1.3,1.2-2.9,2.1-4.8,2.7
				S399.6,79.2,397.5,79.2z"/>
		</g>
	</g>
	<g>
		<radialGradient id="SVGID_1_" cx="52.3096" cy="38.0521" r="31.7436" gradientUnits="userSpaceOnUse">
			<stop  offset="0" style="stop-color:#DDE221"/>
			<stop  offset="1" style="stop-color:#B2D337"/>
		</radialGradient>
		<path class="st0" d="M10.7,41.3c0,0,23.4,11.2,36.6,42.9c0,0,29.2-39.3,78.6-53.5c0,0-9.6-16.1-19.4-18.8c0,0-36.9,18.3-57.6,46.1
			c0,0-9.8-16.9-21-22.4C27.9,35.6,14.9,34.9,10.7,41.3z"/>
		
			<radialGradient id="SVGID_00000062915046852810623280000013634804220237289139_" cx="52.3092" cy="38.0524" r="31.7432" gradientUnits="userSpaceOnUse">
			<stop  offset="0" style="stop-color:#DDE221"/>
			<stop  offset="1" style="stop-color:#B2D337"/>
		</radialGradient>
		<path style="fill:url(#SVGID_00000062915046852810623280000013634804220237289139_);" d="M67.1,20.4c0,8.3-6.7,15-15,15
			c-8.3,0-15-6.7-15-15c0-8.3,6.7-15,15-15C60.4,5.4,67.1,12.1,67.1,20.4z"/>
	</g>
</g>
</svg>
