<?xml version="1.0" encoding="utf-8"?>
<!-- Generator: Adobe Illustrator 27.9.4, SVG Export Plug-In . SVG Version: 9.03 Build 54784)  -->
<svg version="1.1" id="Layer_1" xmlns="http://www.w3.org/2000/svg" xmlns:xlink="http://www.w3.org/1999/xlink" x="0px" y="0px"
	 viewBox="0 0 552.6 97.3" style="enable-background:new 0 0 552.6 97.3;" xml:space="preserve">
<style type="text/css">
	.st0{fill:#00BAD8;}
	.st1{fill:#8EACB8;}
	.st2{fill:#72CADA;}
</style>
<g>
	<g>
		<path class="st0" d="M141.9,66.7V19.5h18.5c3,0,5.5,0.6,7.5,1.8c2,1.2,3.6,2.8,4.6,4.7c1,1.9,1.5,4,1.5,6.1c0,2.6-0.6,4.8-1.9,6.7
			c-1.3,1.9-3,3.1-5.2,3.8l-0.1-1.6c3,0.7,5.3,2.2,6.9,4.3c1.6,2.1,2.4,4.7,2.4,7.5c0,2.8-0.6,5.2-1.7,7.2c-1.1,2.1-2.7,3.6-4.8,4.8
			c-2.1,1.1-4.7,1.7-7.6,1.7H141.9z M148.9,38.8h11.5c1.3,0,2.4-0.3,3.4-0.8c1-0.5,1.8-1.3,2.4-2.2c0.6-1,0.9-2.1,0.9-3.5
			c0-1.8-0.6-3.3-1.8-4.5c-1.2-1.2-2.9-1.8-4.9-1.8h-11.5V38.8z M148.9,60.2h12.3c1.5,0,2.9-0.3,4.2-0.9c1.2-0.6,2.2-1.4,2.9-2.5
			c0.7-1.1,1.1-2.4,1.1-3.9c0-1.4-0.3-2.7-0.9-3.8c-0.6-1.1-1.5-2.1-2.7-2.7c-1.2-0.7-2.5-1-4.1-1h-12.7V60.2z"/>
		<path class="st0" d="M183.5,66.7V19.5h6.8v40.7h21.3v6.4H183.5z"/>
		<path class="st0" d="M236,67.7c-3.7,0-6.9-0.8-9.8-2.3c-2.8-1.5-5-3.6-6.6-6.4c-1.6-2.7-2.4-6-2.4-9.7V19.6l6.9,0V49
			c0,2,0.3,3.8,1,5.3c0.7,1.5,1.6,2.8,2.7,3.8c1.1,1,2.4,1.8,3.8,2.3c1.4,0.5,2.8,0.8,4.3,0.8c1.5,0,2.9-0.3,4.3-0.8
			c1.4-0.5,2.7-1.3,3.8-2.3c1.1-1,2-2.3,2.7-3.8c0.7-1.5,1-3.3,1-5.3V19.5h6.9v29.8c0,3.7-0.8,6.9-2.4,9.7c-1.6,2.7-3.8,4.9-6.6,6.4
			C243,66.9,239.7,67.7,236,67.7z"/>
		<path class="st1" d="M264,66.7V19.5h14.3c0.5,0,1.4,0,2.6,0c1.2,0,2.4,0.1,3.5,0.3c3.6,0.5,6.6,1.8,9,4c2.4,2.2,4.2,4.9,5.4,8.2
			c1.2,3.3,1.8,7,1.8,11s-0.6,7.7-1.8,11c-1.2,3.3-3,6.1-5.4,8.2c-2.4,2.2-5.4,3.5-9,4c-1.1,0.1-2.3,0.2-3.5,0.2s-2.1,0-2.6,0H264z
			 M269,62.1h9.3c0.9,0,1.9,0,2.9-0.1c1-0.1,1.9-0.2,2.7-0.3c2.7-0.5,5-1.6,6.7-3.3c1.7-1.7,2.9-3.9,3.7-6.6
			c0.8-2.6,1.2-5.5,1.2-8.7c0-3.2-0.4-6.1-1.2-8.7c-0.8-2.6-2-4.8-3.7-6.5c-1.7-1.7-3.9-2.8-6.6-3.3c-0.7-0.2-1.6-0.3-2.7-0.3
			c-1.1-0.1-2-0.1-2.9-0.1H269V62.1z"/>
		<path class="st1" d="M308.6,66.7V19.5h4.8v47.1H308.6z"/>
		<path class="st1" d="M320,66.7l16.2-47.1h6.4l16.2,47.1h-5l-15.4-44.4h1.9L325,66.7H320z M327.2,55.2v-4.5h24.4v4.5H327.2z"/>
		<path class="st1" d="M364.7,66.7V19.5h4.4l18.5,39.6l18.4-39.6h4.5v47.1H406V30.3l-16.8,36.4h-3.1l-16.8-36.4v36.4H364.7z"/>
		<path class="st1" d="M438.8,67.7c-4.7,0-8.7-1-11.9-3.1c-3.2-2.1-5.7-5-7.3-8.7c-1.7-3.7-2.5-7.9-2.5-12.8s0.8-9.1,2.5-12.8
			c1.7-3.7,4.1-6.6,7.3-8.7c3.2-2.1,7.2-3.1,11.9-3.1c4.7,0,8.7,1,11.9,3.1c3.2,2.1,5.7,5,7.3,8.7c1.7,3.7,2.5,7.9,2.5,12.8
			s-0.8,9.1-2.5,12.8c-1.7,3.7-4.1,6.6-7.3,8.7C447.5,66.6,443.5,67.7,438.8,67.7z M438.8,63c3.7,0,6.8-0.8,9.2-2.5
			c2.5-1.7,4.3-4,5.5-7c1.2-3,1.8-6.5,1.8-10.4c0-3.9-0.6-7.4-1.8-10.4c-1.2-3-3.1-5.3-5.5-7c-2.5-1.7-5.5-2.5-9.2-2.6
			c-3.7,0-6.8,0.8-9.2,2.5c-2.4,1.7-4.3,4-5.5,7s-1.9,6.5-1.9,10.4c0,3.9,0.6,7.4,1.8,10.4c1.2,3,3.1,5.3,5.5,7
			C432,62.2,435.1,63,438.8,63z"/>
		<path class="st1" d="M467.1,66.7V19.5h4.8l26,38.6V19.5h4.8v47.1h-4.8l-26-38.7v38.7H467.1z"/>
		<path class="st1" d="M511.9,66.7V19.5h14.3c0.5,0,1.4,0,2.6,0c1.2,0,2.4,0.1,3.5,0.3c3.6,0.5,6.6,1.8,9,4c2.4,2.2,4.2,4.9,5.4,8.2
			c1.2,3.3,1.8,7,1.8,11s-0.6,7.7-1.8,11c-1.2,3.3-3,6.1-5.4,8.2c-2.4,2.2-5.4,3.5-9,4c-1.1,0.1-2.3,0.2-3.5,0.2c-1.2,0-2.1,0-2.6,0
			H511.9z M516.9,62.1h9.3c0.9,0,1.9,0,2.9-0.1c1-0.1,1.9-0.2,2.7-0.3c2.7-0.5,5-1.6,6.7-3.3c1.7-1.7,2.9-3.9,3.7-6.6
			c0.8-2.6,1.2-5.5,1.2-8.7c0-3.2-0.4-6.1-1.2-8.7c-0.8-2.6-2-4.8-3.7-6.5c-1.7-1.7-3.9-2.8-6.6-3.3c-0.7-0.2-1.6-0.3-2.7-0.3
			c-1.1-0.1-2-0.1-2.9-0.1h-9.3V62.1z"/>
	</g>
	<g>
		<g>
			<polygon class="st0" points="46.4,4.2 33.9,3.9 5,32.5 16.7,32.8 21.3,32.8 22.4,32.8 37.9,8.3 			"/>
			<polygon class="st2" points="46.4,4.2 37.9,8.3 18.5,32.8 22.6,32.8 33.7,32.8 46.9,4.2 			"/>
		</g>
		<polygon class="st2" points="118.8,38.6 89,38.6 71.7,86.8 		"/>
		<polygon class="st0" points="118.8,38.6 97.3,45.5 71.7,86.8 		"/>
		<polygon class="st2" points="5,38.6 34.7,38.6 52.1,86.8 		"/>
		<polygon class="st2" points="42.5,38.6 80.9,38.6 60.9,94.3 		"/>
		<polygon class="st2" points="69.4,3.9 82,32.5 60.9,32.5 59.4,9.9 		"/>
		<polygon class="st0" points="54.3,3.9 69.4,3.9 60.9,10.9 60.9,32.5 41.4,32.5 		"/>
		<polygon class="st0" points="5,38.6 26.4,45.2 52.1,86.8 		"/>
		<polygon class="st0" points="42.5,38.6 61.7,45.6 60.9,94.3 		"/>
		<g>
			<polygon class="st0" points="76.3,4.2 88.8,3.9 117.6,32.5 105.9,32.8 101.3,32.8 100.2,32.8 84.7,8.3 			"/>
			<polygon class="st2" points="76.3,4.2 84.7,8.3 104.1,32.8 100,32.8 89,32.8 75.8,4.2 			"/>
		</g>
	</g>
</g>
</svg>
