<?xml version="1.0" encoding="utf-8"?>
<!-- Generator: Adobe Illustrator 27.9.4, SVG Export Plug-In . SVG Version: 9.03 Build 54784)  -->
<svg version="1.1" id="Layer_1" xmlns="http://www.w3.org/2000/svg" xmlns:xlink="http://www.w3.org/1999/xlink" x="0px" y="0px"
	 viewBox="0 0 565.5 138" style="enable-background:new 0 0 565.5 138;" xml:space="preserve">
<style type="text/css">
	.st0{fill:#00AEEF;}
	.st1{fill:#004B6B;}
</style>
<g>
	<g>
		<g>
			<path class="st0" d="M158.3,90.6V46h19.6c4.9,0,8.6,1,11.2,3.1c2.6,2,3.9,4.9,3.9,8.5c0,2.7-0.8,5-2.4,6.8
				c-1.6,1.9-3.8,3.1-6.7,3.7v-1c3.3,0.5,5.8,1.6,7.6,3.5c1.8,1.9,2.7,4.4,2.7,7.4c0,4-1.4,7-4.1,9.2c-2.7,2.2-6.6,3.3-11.5,3.3
				H158.3z M166.1,64.9h10.3c2.9,0,5.1-0.5,6.5-1.6c1.4-1.1,2.1-2.7,2.1-4.8c0-2.1-0.7-3.7-2.1-4.8c-1.4-1.1-3.6-1.6-6.5-1.6h-10.3
				V64.9z M166.1,84.4h11.5c2.7,0,4.9-0.5,6.4-1.6c1.5-1,2.3-2.7,2.3-5.1c0-2.4-0.8-4.1-2.3-5.2c-1.5-1-3.7-1.6-6.4-1.6h-11.5V84.4z
				"/>
			<path class="st0" d="M203.3,90.6V46h8.2v37.8h21v6.9H203.3z"/>
			<path class="st0" d="M256.9,91.3c-6.4,0-11.1-1.6-14.2-4.8c-3.1-3.2-4.7-7.9-4.7-14.2V46h8.2v26.3c0,4,0.9,7,2.6,9
				c1.7,2,4.4,3,8.1,3c3.5,0,6.2-1,8-3c1.8-2,2.7-5,2.7-9V46h8v26.4c0,6.3-1.6,11-4.7,14.2C267.8,89.7,263.1,91.3,256.9,91.3z"/>
			<path class="st0" d="M286.4,90.6V46h30.1v6.4h-22.2v12.4H315v6.5h-20.8v13h22.2v6.5H286.4z"/>
			<path class="st1" d="M328.6,90.6V46h4.6l17.9,40.5h-1.8L367.2,46h4.6v44.7h-4.8V52.7h1.9l-16.9,37.9h-3.5l-17-37.9h1.9v37.9
				H328.6z"/>
			<path class="st1" d="M381.3,68.3c0-4.7,0.8-8.8,2.4-12.2c1.6-3.4,4-6,7-7.9c3.1-1.9,6.7-2.8,11.1-2.8c4.2,0,7.8,0.9,10.9,2.8
				c3.1,1.9,5.5,4.5,7.1,7.9c1.7,3.4,2.5,7.4,2.5,12.1c0,4.7-0.8,8.8-2.5,12.2c-1.7,3.4-4.1,6.1-7.1,8c-3.1,1.9-6.7,2.8-10.9,2.8
				c-4.3,0-8-0.9-11-2.8c-3-1.9-5.4-4.5-7-8S381.3,73,381.3,68.3z M386.8,68.3c0,5.7,1.3,10.2,3.8,13.5c2.5,3.2,6.3,4.8,11.2,4.8
				c4.7,0,8.4-1.6,11.1-4.8c2.6-3.2,4-7.7,4-13.5c0-5.8-1.3-10.3-3.9-13.5c-2.6-3.2-6.3-4.8-11.1-4.8c-4.9,0-8.7,1.6-11.2,4.8
				C388,58,386.8,62.5,386.8,68.3z"/>
			<path class="st1" d="M449.5,91.2c-6,0-10.5-1.5-13.5-4.6c-2.9-3.1-4.4-7.6-4.4-13.6V46h5.2v26.7c0,4.6,1,8.1,3,10.4
				c2,2.3,5.2,3.5,9.6,3.5c4.1,0,7.3-1.2,9.4-3.5c2.2-2.3,3.2-5.8,3.2-10.4V46h5.2v27c0,6-1.5,10.5-4.5,13.6
				C459.8,89.7,455.3,91.2,449.5,91.2z"/>
			<path class="st1" d="M478.1,90.6V46h4.1l28.6,38h-1.5V46h4.9v44.7h-4.1l-28.6-38h1.4v38H478.1z"/>
			<path class="st1" d="M536.3,90.6V50.4h-15.8V46h36.8v4.4h-15.7v40.2H536.3z"/>
		</g>
	</g>
	<g>
		<path class="st1" d="M24,70.7c0.9,0.6,8.5,5.9,8.5,5.9l19.7-27.6H60l11.4-22.4c0,0,0,0,0,0l2.4-4.6c1.2,0.6,28.6,15.5,30.2,43.8
			c0.6,11,13.5,18.9,26.4,24.1c2.4-6.7,3.8-13.9,3.8-21.4c0-34.2-27.8-62-62-62c-34.2,0-62,27.8-62,62c0,5.6,0.7,11,2.1,16.1
			C18.2,77.1,23.6,70.4,24,70.7z"/>
		<path class="st0" d="M98.7,66.2c-1.2-21.3-19.4-34.5-25.5-38.4c1.8,8.7,5.8,30.7-0.8,31c-8.1,0.3-18.2-0.3-18.2-0.3
			s2.5,8.8-4.4,11.3c-6.9,2.5,1.6,4.5,1.6,4.5s6.9,1.1-6.3,11.4c-13.2,10.3,13.2,3.1,16-8.1c2.8-11.3,21.9-3.1-2.5,20.4
			c-13.5,13-18.3,19.6-19.9,23c9.6,6.1,21,9.7,33.2,9.7c24.9,0,46.3-14.7,56.2-35.8C113,88.5,99.5,79.3,98.7,66.2z"/>
	</g>
</g>
</svg>
