<svg width="137" height="37" viewBox="0 0 137 37" fill="none" xmlns="http://www.w3.org/2000/svg">
<path fill-rule="evenodd" clip-rule="evenodd" d="M34.702 4.42313C35.1605 3.54871 34.5263 2.5 33.539 2.5H16.714C16.2311 2.5 15.7872 2.76502 15.558 3.19009L10.6388 12.3157C10.4096 12.7408 9.96569 13.0058 9.4828 13.0058H1.31493C0.337827 13.0058 -0.297064 14.0348 0.141236 14.9081L4.42545 23.4441C4.64825 23.888 5.10244 24.1682 5.59913 24.1682H15.0428C15.2146 24.1682 15.3136 24.4029 15.2353 24.5559L11.2316 32.379C10.7876 33.2465 11.4099 34.2784 12.3844 34.2904L29.3241 34.4999C29.8181 34.506 30.2738 34.2343 30.5033 33.7967L34.7035 25.7874C35.1617 24.9137 34.5289 23.8656 33.5423 23.8643L21.5336 23.848C21.0263 23.8473 20.5647 23.5544 20.348 23.0956L16.4912 14.931C16.0781 14.0563 16.7203 13.0503 17.6877 13.0569L29.3289 13.1371C29.8205 13.1405 30.2727 12.8692 30.501 12.4339L34.702 4.42313Z" fill="#584EFE"/>
<path d="M49.5515 28.836C47.5915 28.836 45.8928 28.416 44.4555 27.576C43.0368 26.7173 41.9448 25.532 41.1795 24.02C40.4141 22.4893 40.0315 20.7253 40.0315 18.728C40.0315 16.7307 40.4141 14.9667 41.1795 13.436C41.9635 11.9053 43.0648 10.7107 44.4835 9.852C45.9021 8.99333 47.5915 8.564 49.5515 8.564C51.9408 8.564 53.8915 9.152 55.4035 10.328C56.9341 11.504 57.8861 13.1653 58.2595 15.312H54.0875C53.8635 14.2667 53.3688 13.4547 52.6035 12.876C51.8381 12.2787 50.8115 11.98 49.5235 11.98C48.3475 11.98 47.3395 12.26 46.4995 12.82C45.6595 13.3613 45.0155 14.136 44.5675 15.144C44.1195 16.152 43.8955 17.3467 43.8955 18.728C43.8955 20.1093 44.1195 21.304 44.5675 22.312C45.0155 23.32 45.6595 24.0947 46.4995 24.636C47.3395 25.1587 48.3475 25.42 49.5235 25.42C50.8115 25.42 51.8381 25.1493 52.6035 24.608C53.3688 24.0667 53.8635 23.3013 54.0875 22.312H58.2595C57.8861 24.3467 56.9341 25.9427 55.4035 27.1C53.8915 28.2573 51.9408 28.836 49.5515 28.836ZM61.1253 28.5V8.48H64.9053V28.5H61.1253ZM73.442 28.836C72.3034 28.836 71.3234 28.5933 70.502 28.108C69.6994 27.6227 69.0834 26.904 68.654 25.952C68.2247 24.9813 68.01 23.796 68.01 22.396V14.612H71.79V22.06C71.79 23.2173 72.0234 24.104 72.49 24.72C72.9567 25.336 73.694 25.644 74.702 25.644C75.3554 25.644 75.9247 25.4947 76.41 25.196C76.914 24.8787 77.306 24.44 77.586 23.88C77.866 23.3013 78.006 22.6013 78.006 21.78V14.612H81.786V28.5H78.482L78.202 26.204H78.174C77.726 27.0067 77.1007 27.6507 76.298 28.136C75.514 28.6027 74.562 28.836 73.442 28.836ZM90.8738 28.836C89.6418 28.836 88.5498 28.6307 87.5978 28.22C86.6458 27.8093 85.8804 27.2493 85.3018 26.54C84.7418 25.812 84.4151 24.9907 84.3218 24.076H88.1018C88.1951 24.412 88.3538 24.7293 88.5778 25.028C88.8204 25.308 89.1284 25.532 89.5018 25.7C89.8751 25.868 90.3138 25.952 90.8178 25.952C91.3218 25.952 91.7324 25.8867 92.0498 25.756C92.3671 25.6067 92.6004 25.42 92.7498 25.196C92.8991 24.972 92.9738 24.7387 92.9738 24.496C92.9738 24.1227 92.8618 23.8333 92.6378 23.628C92.4138 23.4227 92.0778 23.2547 91.6298 23.124C91.2004 22.9933 90.6871 22.8533 90.0898 22.704C89.4924 22.5547 88.8764 22.3867 88.2418 22.2C87.6071 22.0133 87.0284 21.78 86.5058 21.5C86.0018 21.2013 85.5911 20.828 85.2738 20.38C84.9564 19.9133 84.7978 19.344 84.7978 18.672C84.7978 17.8507 85.0218 17.1133 85.4698 16.46C85.9178 15.788 86.5618 15.256 87.4018 14.864C88.2604 14.472 89.2871 14.276 90.4818 14.276C92.1431 14.276 93.4684 14.6587 94.4578 15.424C95.4658 16.1893 96.0538 17.244 96.2218 18.588H92.6658C92.5724 18.14 92.3298 17.7947 91.9378 17.552C91.5644 17.2907 91.0698 17.16 90.4538 17.16C89.8004 17.16 89.2964 17.2813 88.9418 17.524C88.6058 17.7667 88.4378 18.0653 88.4378 18.42C88.4378 18.6813 88.5591 18.9147 88.8018 19.12C89.0444 19.3067 89.3804 19.4653 89.8098 19.596C90.2578 19.7267 90.7711 19.8667 91.3498 20.016C92.3578 20.2587 93.2631 20.52 94.0658 20.8C94.8871 21.08 95.5404 21.4813 96.0258 22.004C96.5111 22.5267 96.7538 23.2733 96.7538 24.244C96.7724 25.1213 96.5391 25.9053 96.0538 26.596C95.5684 27.2867 94.8871 27.8373 94.0098 28.248C93.1324 28.64 92.0871 28.836 90.8738 28.836ZM105.378 28.5C104.388 28.5 103.52 28.3507 102.774 28.052C102.046 27.7347 101.476 27.2213 101.066 26.512C100.655 25.784 100.45 24.7947 100.45 23.544V17.72H98.0698V14.612H100.45L100.87 10.832H104.23V14.612H107.926V17.72H104.23V23.6C104.23 24.2347 104.37 24.6827 104.65 24.944C104.93 25.1867 105.406 25.308 106.078 25.308H107.842V28.5H105.378ZM117.011 28.836C115.592 28.836 114.332 28.5373 113.231 27.94C112.148 27.3427 111.299 26.5027 110.683 25.42C110.067 24.3373 109.759 23.096 109.759 21.696C109.759 20.24 110.057 18.9613 110.655 17.86C111.271 16.74 112.12 15.8627 113.203 15.228C114.304 14.5933 115.583 14.276 117.039 14.276C118.42 14.276 119.633 14.5747 120.679 15.172C121.743 15.7693 122.564 16.5907 123.143 17.636C123.74 18.6627 124.039 19.8293 124.039 21.136C124.039 21.3227 124.039 21.5373 124.039 21.78C124.039 22.004 124.02 22.2373 123.983 22.48H112.475V20.156H120.203C120.147 19.2973 119.82 18.6067 119.223 18.084C118.644 17.5613 117.916 17.3 117.039 17.3C116.385 17.3 115.788 17.4493 115.247 17.748C114.705 18.028 114.276 18.4667 113.959 19.064C113.641 19.6427 113.483 20.3707 113.483 21.248V22.06C113.483 22.8067 113.632 23.46 113.931 24.02C114.229 24.58 114.64 25.0093 115.163 25.308C115.704 25.6067 116.311 25.756 116.983 25.756C117.673 25.756 118.252 25.6067 118.719 25.308C119.185 24.9907 119.54 24.5893 119.783 24.104H123.647C123.367 24.9813 122.919 25.784 122.303 26.512C121.687 27.2213 120.931 27.7907 120.035 28.22C119.139 28.6307 118.131 28.836 117.011 28.836ZM126.75 28.5V14.612H130.054L130.418 17.328H130.446C130.8 16.6373 131.22 16.068 131.706 15.62C132.21 15.172 132.779 14.836 133.414 14.612C134.048 14.388 134.758 14.276 135.542 14.276V18.28H134.506C133.908 18.28 133.358 18.3453 132.854 18.476C132.368 18.6067 131.948 18.8213 131.594 19.12C131.258 19.4187 130.996 19.8293 130.81 20.352C130.623 20.856 130.53 21.4907 130.53 22.256V28.5H126.75Z" fill="#1E1E1E"/>
</svg>
