<?xml version="1.0" encoding="utf-8"?>
<!-- Generator: Adobe Illustrator 27.9.3, SVG Export Plug-In . SVG Version: 9.03 Build 53313)  -->
<svg version="1.1" id="Layer_1" xmlns="http://www.w3.org/2000/svg" xmlns:xlink="http://www.w3.org/1999/xlink" x="0px" y="0px"
	 viewBox="0 0 243.3 50.7" style="enable-background:new 0 0 243.3 50.7;" xml:space="preserve">
<style type="text/css">
	.st0{fill:#58595B;}
	.st1{fill:url(#SVGID_1_);}
	.st2{fill:url(#SVGID_00000165214242181020304820000010975013868991960472_);}
</style>
<g>
	<g>
		<path class="st0" d="M60.6,37.1c1.2,0,2.4-0.1,3.4-0.2v-7.5h3.5v9.5c-2.2,0.9-4.4,1.2-7,1.2c-6.3,0-11.1-4.9-11.1-11.4
			c0-6.5,4.8-11.4,11.1-11.4c2.1,0,4.1,0.2,6,1l-0.8,2.7c-1.4-0.5-3-0.8-5.2-0.8c-4.3,0-7.6,3.9-7.6,8.4
			C53,33.5,56.3,37.1,60.6,37.1z"/>
		<path class="st0" d="M82.1,17.3c6.1,0,11.2,4.9,11.2,11.4c0,6.5-4.9,11.4-11.2,11.4C75.9,40,71,35.1,71,28.7
			C71,22.2,75.9,17.3,82.1,17.3z M82.1,37.1c4.4,0,7.7-3.6,7.7-8.4c0-4.5-3.2-8.4-7.7-8.4c-4.5,0-7.6,3.9-7.6,8.4
			C74.5,33.5,77.7,37.1,82.1,37.1z"/>
		<path class="st0" d="M97.1,17.6h3.5v19.1h9.3v3H97.1V17.6z"/>
		<path class="st0" d="M113,17.6h6.3c6.9,0,11.4,4.8,11.4,11.1c0,6.3-4.6,11.1-11.4,11.1H113V17.6z M116.5,20.6v16.2h2.8
			c4.8,0,7.9-3.4,7.9-8.1c0-4.4-3.1-8.1-7.9-8.1H116.5z"/>
		<path class="st0" d="M142.5,20.6v19.1h-3.5V20.6h-6.3v-3h15.9v3H142.5z"/>
		<path class="st0" d="M169.2,31.8c0,5-3.9,8.2-8.9,8.2c-5,0-8.9-3.3-8.9-8.2V17.6h3.5v14.2c0,3.3,2.4,5.2,5.4,5.2
			c2.9,0,5.4-1.9,5.4-5.2V17.6h3.5V31.8z"/>
		<path class="st0" d="M181.2,30.8h-3.9v9h-3.5V17.6h6.9c5.3,0,8.3,3,8.3,6.6c0,2.6-1.5,4.8-4.2,5.9l5.6,9.7h-4L181.2,30.8z
			 M177.3,20.6v7.2h3.3c3.2,0,4.7-1.5,4.7-3.6c0-2.1-1.5-3.6-4.7-3.6H177.3z"/>
		<path class="st0" d="M201.1,20.6v19.1h-3.5V20.6h-6.3v-3h15.9v3H201.1z"/>
		<path class="st0" d="M210.2,17.6h3.5v19.1h9.3v3h-12.9V17.6z"/>
		<path class="st0" d="M226.1,39.7V17.6h13.6v3h-10v6.3h9.5v3h-9.5v6.9h10v3H226.1z"/>
	</g>
	<g>
		<linearGradient id="SVGID_1_" gradientUnits="userSpaceOnUse" x1="3.9633" y1="9.5974" x2="24.7336" y2="39.2692">
			<stop  offset="0" style="stop-color:#F8EC22"/>
			<stop  offset="0.1424" style="stop-color:#F8E423"/>
			<stop  offset="0.3819" style="stop-color:#F7D223"/>
			<stop  offset="0.6892" style="stop-color:#F6B523"/>
			<stop  offset="1" style="stop-color:#F69322"/>
		</linearGradient>
		<path class="st1" d="M22.9,2.9c-0.3,0.3-6,5.5-6,10c0,2.1,0.6,4,1.5,5.5c-1.1,0.5-2.1,1.2-3,2c-3.4-3-11.1-2.6-11.1-2.6
			s-0.4,8,2.8,11.3c1.5,1.5,3.4,2.5,5.1,2.9c0.3,0.9,0.6,1.7,1.1,2.4c-1.2,0.5-2.4,1.3-3.5,2.4C6.7,40,7.2,48,7.2,48s0.1,0,0.2,0
			C14.7,44,30.3,31.7,22.9,2.9z"/>
		
			<linearGradient id="SVGID_00000000945476620870113900000009074006620142910097_" gradientUnits="userSpaceOnUse" x1="7.3333" y1="25.4311" x2="41.5796" y2="25.4311">
			<stop  offset="0" style="stop-color:#F6DE26"/>
			<stop  offset="0.4267" style="stop-color:#F2A328"/>
			<stop  offset="0.819" style="stop-color:#F07126"/>
			<stop  offset="1" style="stop-color:#F05A25"/>
		</linearGradient>
		<path style="fill:url(#SVGID_00000000945476620870113900000009074006620142910097_);" d="M32.5,34.3c0.5-0.7,0.8-1.6,1.1-2.4
			c1.8-0.4,3.6-1.4,5.1-2.9c3.3-3.3,2.8-11.3,2.8-11.3s-7.6-0.4-11.1,2.6c-0.9-0.8-1.9-1.5-3-2c0.9-1.5,1.5-3.4,1.5-5.5
			c0-4.6-6-10-6-10s0,0,0,0C30.3,31.7,14.7,44,7.3,48c1.1,0,8.1,0.2,11.1-2.8c1.7-1.7,2.7-3.7,3-5.6c0.5,0.1,1,0.1,1.5,0.1
			c0.5,0,1,0,1.5-0.1c0.3,1.9,1.3,3.9,3,5.6c3.3,3.3,11.3,2.8,11.3,2.8s0.4-8-2.8-11.3C34.9,35.6,33.7,34.8,32.5,34.3z"/>
	</g>
</g>
</svg>
