<svg width="274" height="270" viewBox="0 0 274 270" fill="none" xmlns="http://www.w3.org/2000/svg">
<g clip-path="url(#clip0_21_181)">
<rect width="274" height="270" fill="white"/>
<path d="M89.2581 52.1304V45.3593H86.9901V44.4609H92.6327V45.3593H90.3538V52.1304H89.2581ZM93.5114 52.1304V44.2417H94.607V47.3534C94.7896 47.0393 95.0416 46.791 95.363 46.6083C95.6844 46.4257 96.0387 46.3344 96.4258 46.3344C96.8787 46.3344 97.2585 46.4221 97.5653 46.5974C97.8794 46.7654 98.1168 47.0247 98.2775 47.3753C98.4455 47.7186 98.5295 48.1532 98.5295 48.6791V52.1304H97.4448V48.7887C97.4448 48.2847 97.3316 47.9049 97.1051 47.6492C96.8787 47.3936 96.5573 47.2657 96.1409 47.2657C95.8561 47.2657 95.5968 47.3351 95.363 47.4739C95.1293 47.6054 94.943 47.8026 94.8043 48.0656C94.6728 48.3212 94.607 48.6316 94.607 48.9969V52.1304H93.5114ZM99.8634 52.1304V46.4659H100.959V52.1304H99.8634ZM100.411 45.4689C100.207 45.4689 100.035 45.4031 99.8963 45.2716C99.7575 45.1402 99.6881 44.9722 99.6881 44.7676C99.6881 44.5704 99.7575 44.4097 99.8963 44.2856C100.035 44.1541 100.207 44.0883 100.411 44.0883C100.616 44.0883 100.787 44.1541 100.926 44.2856C101.065 44.4097 101.134 44.5704 101.134 44.7676C101.134 44.9722 101.065 45.1402 100.926 45.2716C100.787 45.4031 100.616 45.4689 100.411 45.4689ZM104.465 52.2619C103.953 52.2619 103.522 52.1852 103.172 52.0318C102.828 51.8711 102.562 51.652 102.372 51.3744C102.182 51.0896 102.069 50.7609 102.032 50.3883H103.15C103.179 50.571 103.245 50.7353 103.347 50.8814C103.449 51.0275 103.592 51.148 103.774 51.243C103.964 51.3306 104.194 51.3744 104.465 51.3744C104.698 51.3744 104.896 51.3416 105.056 51.2758C105.217 51.2028 105.338 51.1042 105.418 50.98C105.498 50.8558 105.538 50.717 105.538 50.5636C105.538 50.3445 105.487 50.1765 105.385 50.0596C105.29 49.9428 105.144 49.8551 104.947 49.7967C104.757 49.731 104.523 49.6762 104.246 49.6323C103.946 49.5885 103.672 49.5264 103.424 49.4461C103.175 49.3657 102.96 49.2635 102.777 49.1393C102.602 49.0151 102.463 48.8581 102.361 48.6682C102.266 48.471 102.219 48.2409 102.219 47.9779C102.219 47.6565 102.303 47.3716 102.471 47.1233C102.646 46.875 102.891 46.6814 103.205 46.5426C103.526 46.4038 103.902 46.3344 104.333 46.3344C104.969 46.3344 105.473 46.4805 105.845 46.7727C106.218 47.0576 106.437 47.463 106.503 47.9889H105.44C105.403 47.7478 105.286 47.5616 105.089 47.4301C104.899 47.2913 104.644 47.2219 104.322 47.2219C103.994 47.2219 103.742 47.284 103.566 47.4082C103.391 47.5323 103.303 47.7003 103.303 47.9122C103.303 48.051 103.347 48.1788 103.435 48.2956C103.522 48.4125 103.661 48.5111 103.851 48.5915C104.041 48.6645 104.289 48.7266 104.596 48.7777C105.027 48.8435 105.396 48.9311 105.703 49.0407C106.01 49.1503 106.247 49.3183 106.415 49.5447C106.583 49.7711 106.663 50.0816 106.656 50.476C106.656 50.8485 106.565 51.1699 106.382 51.4402C106.199 51.7031 105.944 51.9076 105.615 52.0537C105.294 52.1925 104.91 52.2619 104.465 52.2619ZM110.375 52.1304V46.4659H111.35L111.416 47.2329C111.591 46.9553 111.825 46.7362 112.117 46.5755C112.417 46.4148 112.742 46.3344 113.092 46.3344C113.37 46.3344 113.618 46.371 113.837 46.444C114.064 46.517 114.261 46.6303 114.429 46.7836C114.597 46.937 114.736 47.127 114.845 47.3534C115.035 47.0247 115.294 46.7727 115.623 46.5974C115.952 46.4221 116.299 46.3344 116.664 46.3344C117.11 46.3344 117.486 46.4221 117.793 46.5974C118.107 46.7654 118.344 47.021 118.505 47.3643C118.673 47.7076 118.757 48.135 118.757 48.6463V52.1304H117.672V48.7558C117.672 48.2591 117.566 47.8866 117.354 47.6383C117.142 47.3899 116.847 47.2657 116.467 47.2657C116.211 47.2657 115.981 47.3315 115.777 47.463C115.572 47.5944 115.408 47.788 115.284 48.0436C115.167 48.292 115.108 48.5988 115.108 48.964V52.1304H114.013V48.7558C114.013 48.2591 113.907 47.8866 113.695 47.6383C113.49 47.3899 113.198 47.2657 112.818 47.2657C112.57 47.2657 112.344 47.3315 112.139 47.463C111.934 47.5944 111.77 47.788 111.646 48.0436C111.529 48.292 111.471 48.5988 111.471 48.964V52.1304H110.375ZM122.53 52.2619C122.004 52.2619 121.533 52.1414 121.117 51.9003C120.708 51.652 120.386 51.305 120.153 50.8595C119.919 50.4066 119.802 49.888 119.802 49.3036C119.802 48.7047 119.919 48.1824 120.153 47.7369C120.386 47.2913 120.711 46.948 121.128 46.707C121.544 46.4586 122.019 46.3344 122.552 46.3344C123.085 46.3344 123.556 46.4586 123.965 46.707C124.382 46.948 124.703 47.2913 124.93 47.7369C125.163 48.1751 125.28 48.6937 125.28 49.2927C125.28 49.8843 125.163 50.4066 124.93 50.8595C124.696 51.305 124.371 51.652 123.954 51.9003C123.545 52.1414 123.071 52.2619 122.53 52.2619ZM122.53 51.3196C122.837 51.3196 123.114 51.2466 123.363 51.1005C123.611 50.9471 123.805 50.7207 123.943 50.4212C124.09 50.1144 124.163 49.7383 124.163 49.2927C124.163 48.8471 124.093 48.4746 123.954 48.1751C123.816 47.8756 123.622 47.6529 123.374 47.5068C123.133 47.3534 122.859 47.2767 122.552 47.2767C122.253 47.2767 121.979 47.3534 121.73 47.5068C121.482 47.6529 121.285 47.8756 121.139 48.1751C120.993 48.4746 120.919 48.8471 120.919 49.2927C120.919 49.7383 120.993 50.1144 121.139 50.4212C121.285 50.7207 121.478 50.9471 121.719 51.1005C121.96 51.2466 122.231 51.3196 122.53 51.3196ZM126.382 52.1304V46.4659H127.357L127.423 47.3753C127.591 47.0466 127.832 46.791 128.146 46.6083C128.468 46.4257 128.836 46.3344 129.253 46.3344C129.691 46.3344 130.067 46.4184 130.381 46.5864C130.695 46.7544 130.936 47.0101 131.104 47.3534C131.28 47.6894 131.367 48.1167 131.367 48.6353V52.1304H130.272V48.7449C130.272 48.2555 130.155 47.8866 129.921 47.6383C129.695 47.3899 129.373 47.2657 128.957 47.2657C128.687 47.2657 128.438 47.3315 128.212 47.463C127.986 47.5871 127.807 47.7734 127.675 48.0217C127.544 48.2701 127.478 48.5769 127.478 48.9421V52.1304H126.382ZM134.948 52.1304C134.598 52.1304 134.295 52.0756 134.039 51.9661C133.783 51.8565 133.586 51.6739 133.447 51.4183C133.308 51.1626 133.239 50.8156 133.239 50.3774V47.3863H132.253V46.4659H133.239L133.371 45.0087H134.335V46.4659H135.912V47.3863H134.335V50.3883C134.335 50.7024 134.4 50.9179 134.532 51.0348C134.663 51.1443 134.89 51.1991 135.211 51.1991H135.891V52.1304H134.948ZM136.954 52.1304V44.2417H138.05V47.3534C138.232 47.0393 138.484 46.791 138.806 46.6083C139.127 46.4257 139.481 46.3344 139.868 46.3344C140.321 46.3344 140.701 46.4221 141.008 46.5974C141.322 46.7654 141.559 47.0247 141.72 47.3753C141.888 47.7186 141.972 48.1532 141.972 48.6791V52.1304H140.887V48.7887C140.887 48.2847 140.774 47.9049 140.548 47.6492C140.321 47.3936 140 47.2657 139.584 47.2657C139.299 47.2657 139.039 47.3351 138.806 47.4739C138.572 47.6054 138.386 47.8026 138.247 48.0656C138.115 48.3212 138.05 48.6316 138.05 48.9969V52.1304H136.954ZM148.311 52.2619C147.785 52.2619 147.321 52.1414 146.92 51.9003C146.518 51.652 146.2 51.3087 145.966 50.8704C145.74 50.4249 145.627 49.9063 145.627 49.3146C145.627 48.7156 145.74 48.1934 145.966 47.7478C146.193 47.3023 146.507 46.9553 146.909 46.707C147.318 46.4586 147.792 46.3344 148.333 46.3344C148.881 46.3344 149.345 46.4586 149.724 46.707C150.112 46.948 150.407 47.2767 150.612 47.693C150.816 48.1021 150.919 48.555 150.919 49.0516C150.919 49.1247 150.915 49.2014 150.908 49.2817C150.908 49.3621 150.904 49.4534 150.897 49.5556H146.438V48.7777H149.834C149.812 48.2883 149.659 47.9122 149.374 47.6492C149.089 47.379 148.735 47.2438 148.311 47.2438C148.026 47.2438 147.76 47.3132 147.511 47.452C147.27 47.5908 147.073 47.7953 146.92 48.0656C146.774 48.3358 146.7 48.6755 146.7 49.0845V49.4023C146.7 49.8259 146.774 50.1838 146.92 50.476C147.066 50.7609 147.259 50.98 147.5 51.1334C147.741 51.2795 148.012 51.3525 148.311 51.3525C148.676 51.3525 148.965 51.2795 149.177 51.1334C149.396 50.9873 149.556 50.7864 149.659 50.5308H150.765C150.67 50.8595 150.51 51.1553 150.283 51.4183C150.064 51.6812 149.787 51.8894 149.451 52.0428C149.122 52.1889 148.742 52.2619 148.311 52.2619ZM153.769 52.2619C153.323 52.2619 152.954 52.1816 152.662 52.0209C152.37 51.8602 152.151 51.6483 152.005 51.3854C151.859 51.1151 151.786 50.8266 151.786 50.5198C151.786 50.1546 151.877 49.8405 152.06 49.5776C152.25 49.3146 152.52 49.1137 152.87 48.975C153.221 48.8362 153.641 48.7668 154.13 48.7668H155.533C155.533 48.4235 155.493 48.1423 155.412 47.9231C155.332 47.6967 155.197 47.5287 155.007 47.4191C154.824 47.3023 154.583 47.2438 154.284 47.2438C153.97 47.2438 153.699 47.3205 153.473 47.4739C153.254 47.62 153.115 47.8428 153.057 48.1423H151.961C152.005 47.7551 152.133 47.4301 152.344 47.1671C152.564 46.8969 152.841 46.6923 153.177 46.5536C153.52 46.4075 153.889 46.3344 154.284 46.3344C154.802 46.3344 155.237 46.4257 155.588 46.6083C155.938 46.791 156.198 47.0503 156.366 47.3863C156.541 47.715 156.628 48.1057 156.628 48.5586V52.1304H155.675L155.588 51.1882C155.515 51.3416 155.42 51.484 155.303 51.6155C155.193 51.7396 155.062 51.8529 154.908 51.9551C154.762 52.0501 154.594 52.1231 154.404 52.1743C154.214 52.2327 154.003 52.2619 153.769 52.2619ZM153.977 51.3744C154.203 51.3744 154.408 51.327 154.591 51.232C154.78 51.1297 154.941 50.9983 155.073 50.8376C155.211 50.6696 155.317 50.4796 155.39 50.2678C155.471 50.056 155.515 49.8332 155.522 49.5995V49.5337H154.229C153.922 49.5337 153.67 49.5739 153.473 49.6543C153.283 49.7273 153.144 49.8332 153.057 49.972C152.976 50.1108 152.936 50.2715 152.936 50.4541C152.936 50.6367 152.976 50.7974 153.057 50.9362C153.137 51.075 153.254 51.1845 153.407 51.2649C153.568 51.3379 153.758 51.3744 153.977 51.3744ZM157.894 52.1304V46.4659H158.869L158.968 47.4958C159.099 47.2475 159.267 47.0356 159.472 46.8603C159.676 46.685 159.921 46.5536 160.206 46.4659C160.498 46.3783 160.823 46.3344 161.181 46.3344V47.4849H160.633C160.414 47.4849 160.206 47.5141 160.009 47.5725C159.812 47.6236 159.636 47.715 159.483 47.8464C159.33 47.9706 159.209 48.1423 159.121 48.3614C159.034 48.5805 158.99 48.8508 158.99 49.1722V52.1304H157.894ZM161.998 52.1304V46.4659H162.973L163.039 47.3753C163.207 47.0466 163.448 46.791 163.762 46.6083C164.083 46.4257 164.452 46.3344 164.868 46.3344C165.307 46.3344 165.683 46.4184 165.997 46.5864C166.311 46.7544 166.552 47.0101 166.72 47.3534C166.895 47.6894 166.983 48.1167 166.983 48.6353V52.1304H165.887V48.7449C165.887 48.2555 165.77 47.8866 165.537 47.6383C165.31 47.3899 164.989 47.2657 164.573 47.2657C164.302 47.2657 164.054 47.3315 163.828 47.463C163.601 47.5871 163.422 47.7734 163.291 48.0217C163.159 48.2701 163.093 48.5769 163.093 48.9421V52.1304H161.998ZM168.318 52.1304V46.4659H169.413V52.1304H168.318ZM168.866 45.4689C168.661 45.4689 168.489 45.4031 168.351 45.2716C168.212 45.1402 168.142 44.9722 168.142 44.7676C168.142 44.5704 168.212 44.4097 168.351 44.2856C168.489 44.1541 168.661 44.0883 168.866 44.0883C169.07 44.0883 169.242 44.1541 169.381 44.2856C169.519 44.4097 169.589 44.5704 169.589 44.7676C169.589 44.9722 169.519 45.1402 169.381 45.2716C169.242 45.4031 169.07 45.4689 168.866 45.4689ZM170.793 52.1304V46.4659H171.769L171.834 47.3753C172.002 47.0466 172.243 46.791 172.557 46.6083C172.879 46.4257 173.248 46.3344 173.664 46.3344C174.102 46.3344 174.478 46.4184 174.793 46.5864C175.107 46.7544 175.348 47.0101 175.516 47.3534C175.691 47.6894 175.779 48.1167 175.779 48.6353V52.1304H174.683V48.7449C174.683 48.2555 174.566 47.8866 174.332 47.6383C174.106 47.3899 173.785 47.2657 173.368 47.2657C173.098 47.2657 172.85 47.3315 172.623 47.463C172.397 47.5871 172.218 47.7734 172.086 48.0217C171.955 48.2701 171.889 48.5769 171.889 48.9421V52.1304H170.793ZM179.316 54.6723C178.797 54.6723 178.34 54.6066 177.946 54.4751C177.559 54.351 177.256 54.1574 177.037 53.8944C176.825 53.6315 176.719 53.3101 176.719 52.9303C176.719 52.7257 176.763 52.5176 176.85 52.3057C176.945 52.1012 177.091 51.9076 177.289 51.725C177.486 51.5424 177.749 51.3817 178.078 51.243L178.735 51.725C178.348 51.8711 178.088 52.0391 177.957 52.229C177.826 52.4263 177.76 52.6235 177.76 52.8207C177.76 53.0398 177.826 53.2224 177.957 53.3685C178.088 53.5146 178.271 53.6242 178.505 53.6972C178.739 53.7703 179.009 53.8068 179.316 53.8068C179.615 53.8068 179.871 53.7666 180.083 53.6863C180.302 53.6059 180.47 53.4927 180.587 53.3466C180.711 53.2078 180.773 53.0398 180.773 52.8426C180.773 52.5796 180.682 52.3678 180.499 52.2071C180.324 52.0537 179.977 51.9624 179.458 51.9332C179.034 51.904 178.673 51.8638 178.373 51.8127C178.081 51.7616 177.833 51.6995 177.628 51.6264C177.431 51.5534 177.263 51.473 177.124 51.3854C176.993 51.2977 176.876 51.2064 176.774 51.1115V50.8595L177.891 49.7419L178.812 50.0487L177.574 51.1443L177.804 50.6294C177.884 50.6878 177.961 50.7426 178.034 50.7937C178.107 50.8376 178.205 50.8777 178.33 50.9143C178.454 50.9508 178.625 50.9873 178.844 51.0238C179.064 51.053 179.352 51.0823 179.71 51.1115C180.214 51.1553 180.619 51.2466 180.926 51.3854C181.24 51.5169 181.467 51.7031 181.606 51.9442C181.744 52.1779 181.814 52.4664 181.814 52.8097C181.814 53.1238 181.726 53.4233 181.551 53.7082C181.383 53.993 181.112 54.2231 180.74 54.3984C180.375 54.581 179.9 54.6723 179.316 54.6723ZM179.316 50.3883C178.848 50.3883 178.45 50.3007 178.121 50.1254C177.8 49.9428 177.552 49.6981 177.376 49.3913C177.208 49.0845 177.124 48.7412 177.124 48.3614C177.124 47.9816 177.208 47.6419 177.376 47.3424C177.552 47.0356 177.804 46.791 178.132 46.6083C178.461 46.4257 178.855 46.3344 179.316 46.3344C179.783 46.3344 180.178 46.4257 180.499 46.6083C180.828 46.791 181.076 47.0356 181.244 47.3424C181.419 47.6419 181.507 47.9816 181.507 48.3614C181.507 48.7412 181.419 49.0845 181.244 49.3913C181.076 49.6981 180.828 49.9428 180.499 50.1254C180.178 50.3007 179.783 50.3883 179.316 50.3883ZM179.316 49.5228C179.681 49.5228 179.969 49.4278 180.181 49.2379C180.393 49.0407 180.499 48.7485 180.499 48.3614C180.499 47.9816 180.393 47.6967 180.181 47.5068C179.969 47.3169 179.681 47.2219 179.316 47.2219C178.958 47.2219 178.666 47.3169 178.439 47.5068C178.22 47.6967 178.11 47.9816 178.11 48.3614C178.11 48.7485 178.22 49.0407 178.439 49.2379C178.658 49.4278 178.95 49.5228 179.316 49.5228ZM180.258 47.3205L179.995 46.4659H182.252V47.211L180.258 47.3205ZM185.278 52.2619C184.766 52.2619 184.335 52.1852 183.985 52.0318C183.641 51.8711 183.375 51.652 183.185 51.3744C182.995 51.0896 182.882 50.7609 182.845 50.3883H183.963C183.992 50.571 184.058 50.7353 184.16 50.8814C184.262 51.0275 184.405 51.148 184.587 51.243C184.777 51.3306 185.007 51.3744 185.278 51.3744C185.511 51.3744 185.709 51.3416 185.869 51.2758C186.03 51.2028 186.15 51.1042 186.231 50.98C186.311 50.8558 186.351 50.717 186.351 50.5636C186.351 50.3445 186.3 50.1765 186.198 50.0596C186.103 49.9428 185.957 49.8551 185.76 49.7967C185.57 49.731 185.336 49.6762 185.058 49.6323C184.759 49.5885 184.485 49.5264 184.237 49.4461C183.988 49.3657 183.773 49.2635 183.59 49.1393C183.415 49.0151 183.276 48.8581 183.174 48.6682C183.079 48.471 183.031 48.2409 183.031 47.9779C183.031 47.6565 183.115 47.3716 183.283 47.1233C183.459 46.875 183.703 46.6814 184.018 46.5426C184.339 46.4038 184.715 46.3344 185.146 46.3344C185.782 46.3344 186.286 46.4805 186.658 46.7727C187.031 47.0576 187.25 47.463 187.315 47.9889H186.253C186.216 47.7478 186.099 47.5616 185.902 47.4301C185.712 47.2913 185.457 47.2219 185.135 47.2219C184.806 47.2219 184.554 47.284 184.379 47.4082C184.204 47.5323 184.116 47.7003 184.116 47.9122C184.116 48.051 184.16 48.1788 184.248 48.2956C184.335 48.4125 184.474 48.5111 184.664 48.5915C184.854 48.6645 185.102 48.7266 185.409 48.7777C185.84 48.8435 186.209 48.9311 186.516 49.0407C186.822 49.1503 187.06 49.3183 187.228 49.5447C187.396 49.7711 187.476 50.0816 187.469 50.476C187.469 50.8485 187.378 51.1699 187.195 51.4402C187.012 51.7031 186.757 51.9076 186.428 52.0537C186.107 52.1925 185.723 52.2619 185.278 52.2619Z" fill="#4F4F4F"/>
<path d="M103.681 87.0106V63.6216H105.437V87.0106H103.681ZM104.799 85.015C103.451 85.015 102.244 84.7843 101.18 84.3231C100.133 83.8619 99.3085 83.1878 98.7054 82.3009C98.1023 81.4139 97.783 80.3407 97.7475 79.0812H101.553C101.57 79.6311 101.712 80.1278 101.978 80.5713C102.244 81.0148 102.617 81.3696 103.096 81.6356C103.575 81.884 104.142 82.0082 104.799 82.0082C105.349 82.0082 105.828 81.9195 106.236 81.7421C106.661 81.5647 106.99 81.3075 107.22 80.9704C107.469 80.6334 107.593 80.2254 107.593 79.7464C107.593 79.1965 107.46 78.7442 107.194 78.3894C106.927 78.0346 106.564 77.733 106.103 77.4847C105.641 77.2363 105.109 77.0146 104.506 76.8195C103.921 76.6066 103.3 76.3937 102.643 76.1809C101.189 75.6842 100.08 75.0456 99.3174 74.265C98.5546 73.4668 98.1732 72.4024 98.1732 71.072C98.1732 69.9722 98.4393 69.0231 98.9715 68.2249C99.5037 67.4266 100.249 66.8146 101.207 66.3889C102.165 65.9631 103.255 65.7503 104.479 65.7503C105.739 65.7503 106.848 65.972 107.806 66.4155C108.763 66.8412 109.517 67.4621 110.067 68.2781C110.617 69.0941 110.91 70.052 110.945 71.1518H107.087C107.069 70.7261 106.954 70.3358 106.741 69.981C106.528 69.6085 106.218 69.3158 105.81 69.103C105.42 68.8723 104.958 68.757 104.426 68.757C103.965 68.7393 103.539 68.8103 103.149 68.9699C102.777 69.1296 102.484 69.369 102.271 69.6883C102.058 69.9899 101.952 70.3713 101.952 70.8325C101.952 71.276 102.058 71.6574 102.271 71.9767C102.484 72.2783 102.785 72.5355 103.176 72.7483C103.566 72.9612 104.018 73.1652 104.533 73.3603C105.065 73.5377 105.65 73.7329 106.289 73.9457C107.211 74.265 108.063 74.6464 108.843 75.0899C109.624 75.5156 110.245 76.0744 110.706 76.7663C111.167 77.4581 111.398 78.3628 111.398 79.4803C111.398 80.4737 111.141 81.3873 110.626 82.221C110.129 83.0548 109.393 83.7289 108.418 84.2433C107.442 84.7577 106.236 85.015 104.799 85.015ZM120.731 85.015C119.312 85.015 118.114 84.7577 117.139 84.2433C116.181 83.7111 115.409 83.0104 114.824 82.1412C114.256 81.272 113.839 80.3052 113.573 79.2409C113.307 78.1765 113.174 77.0944 113.174 75.9946C113.174 73.9014 113.467 72.092 114.052 70.5664C114.637 69.0409 115.48 67.8612 116.58 67.0275C117.697 66.176 119.037 65.7503 120.598 65.7503C121.91 65.7503 123.01 66.0075 123.897 66.5219C124.802 67.0186 125.503 67.6838 125.999 68.5176C126.496 69.3336 126.789 70.2205 126.877 71.1784H123.551C123.409 70.3802 123.081 69.7682 122.567 69.3424C122.052 68.9167 121.387 68.7038 120.571 68.7038C119.826 68.7038 119.17 68.9344 118.602 69.3956C118.034 69.8569 117.582 70.5487 117.245 71.4711C116.926 72.3936 116.739 73.5555 116.686 74.9569C116.686 74.9746 116.686 75.0012 116.686 75.0367C116.686 75.0544 116.686 75.0722 116.686 75.0899C116.97 74.611 117.343 74.1941 117.804 73.8393C118.283 73.4668 118.824 73.1741 119.427 72.9612C120.048 72.7483 120.686 72.6419 121.343 72.6419C122.372 72.6419 123.338 72.8903 124.243 73.387C125.148 73.8836 125.875 74.5843 126.425 75.489C126.993 76.3937 127.276 77.467 127.276 78.7087C127.276 79.8263 127.002 80.8729 126.452 81.8485C125.902 82.8064 125.13 83.5781 124.137 84.1635C123.161 84.7311 122.026 85.015 120.731 85.015ZM120.518 81.9283C121.156 81.9283 121.724 81.7953 122.221 81.5292C122.718 81.2631 123.108 80.8995 123.392 80.4383C123.675 79.9593 123.817 79.4183 123.817 78.8151C123.817 78.1765 123.675 77.6266 123.392 77.1654C123.108 76.7042 122.709 76.3405 122.194 76.0744C121.698 75.8083 121.13 75.6753 120.491 75.6753C119.853 75.6753 119.285 75.8172 118.788 76.101C118.292 76.3671 117.892 76.7396 117.591 77.2186C117.289 77.6798 117.139 78.2031 117.139 78.7885C117.139 79.3916 117.289 79.9327 117.591 80.4116C117.892 80.8729 118.292 81.2454 118.788 81.5292C119.303 81.7953 119.879 81.9283 120.518 81.9283ZM136.402 85.015C135.125 85.015 133.963 84.7843 132.916 84.3231C131.887 83.8619 131.063 83.2144 130.442 82.3807C129.839 81.547 129.537 80.5802 129.537 79.4803C129.537 78.7176 129.661 78.0257 129.91 77.4049C130.176 76.784 130.548 76.2341 131.027 75.7551C131.506 75.2762 132.065 74.9125 132.703 74.6642C131.887 74.2916 131.231 73.7595 130.734 73.0676C130.238 72.3758 129.989 71.5953 129.989 70.7261C129.989 69.8569 130.229 69.0409 130.708 68.2781C131.204 67.5153 131.923 66.9033 132.863 66.4421C133.821 65.9809 135.001 65.7503 136.402 65.7503C137.821 65.7503 139.001 65.9809 139.941 66.4421C140.899 66.9033 141.617 67.5153 142.096 68.2781C142.575 69.0409 142.815 69.8569 142.815 70.7261C142.815 71.5776 142.566 72.3581 142.07 73.0676C141.573 73.7595 140.917 74.2916 140.101 74.6642C140.757 74.9303 141.316 75.3028 141.777 75.7817C142.256 76.243 142.628 76.784 142.895 77.4049C143.161 78.0257 143.294 78.7176 143.294 79.4803C143.294 80.5802 142.983 81.547 142.362 82.3807C141.759 83.2144 140.934 83.8619 139.888 84.3231C138.859 84.7843 137.697 85.015 136.402 85.015ZM136.402 82.0082C137.52 82.0082 138.353 81.7421 138.903 81.2099C139.471 80.6777 139.755 80.0036 139.755 79.1876C139.755 78.283 139.462 77.5734 138.877 77.059C138.291 76.5268 137.466 76.2607 136.402 76.2607C135.355 76.2607 134.531 76.5268 133.927 77.059C133.342 77.5734 133.049 78.283 133.049 79.1876C133.049 80.0036 133.333 80.6777 133.901 81.2099C134.468 81.7421 135.302 82.0082 136.402 82.0082ZM136.402 73.6264C137.324 73.6264 138.034 73.3958 138.531 72.9346C139.027 72.4734 139.276 71.8791 139.276 71.1518C139.276 70.3713 139.027 69.7682 138.531 69.3424C138.034 68.899 137.333 68.6772 136.429 68.6772C135.506 68.6772 134.797 68.899 134.3 69.3424C133.803 69.7682 133.555 70.3802 133.555 71.1784C133.555 71.888 133.803 72.4734 134.3 72.9346C134.797 73.3958 135.497 73.6264 136.402 73.6264ZM145.24 84.6956V82.0614C146.375 81.1567 147.466 80.252 148.513 79.3473C149.577 78.4426 150.535 77.5468 151.386 76.6598C152.238 75.7551 152.903 74.877 153.382 74.0256C153.879 73.1741 154.127 72.3492 154.127 71.551C154.127 71.0543 154.038 70.6019 153.861 70.1939C153.684 69.7682 153.409 69.4311 153.036 69.1828C152.664 68.9167 152.167 68.7836 151.546 68.7836C150.943 68.7836 150.429 68.9256 150.003 69.2094C149.577 69.4932 149.258 69.8746 149.045 70.3536C148.832 70.8148 148.726 71.3381 148.726 71.9235H145.266C145.302 70.5576 145.604 69.4134 146.171 68.491C146.739 67.5685 147.502 66.8856 148.46 66.4421C149.417 65.9809 150.482 65.7503 151.653 65.7503C152.965 65.7503 154.065 65.9986 154.952 66.4953C155.857 66.9743 156.54 67.6306 157.001 68.4643C157.48 69.2981 157.719 70.256 157.719 71.3381C157.719 72.1541 157.569 72.9523 157.267 73.7329C156.983 74.5134 156.584 75.2762 156.07 76.0212C155.555 76.7485 154.97 77.4492 154.313 78.1233C153.657 78.7974 152.974 79.4449 152.265 80.0657C151.573 80.6689 150.899 81.2365 150.242 81.7687H158.172V84.6956H145.24ZM161.854 84.8287C161.198 84.8287 160.657 84.6336 160.231 84.2433C159.823 83.8353 159.619 83.3475 159.619 82.7798C159.619 82.1767 159.823 81.68 160.231 81.2897C160.657 80.8817 161.198 80.6777 161.854 80.6777C162.493 80.6777 163.016 80.8817 163.424 81.2897C163.832 81.68 164.036 82.1767 164.036 82.7798C164.036 83.3475 163.832 83.8353 163.424 84.2433C163.016 84.6336 162.493 84.8287 161.854 84.8287ZM172.9 85.015C171.534 85.015 170.355 84.7755 169.361 84.2965C168.386 83.7998 167.614 83.1346 167.046 82.3009C166.496 81.4494 166.177 80.4915 166.088 79.4271H169.574C169.716 80.1367 170.089 80.7398 170.692 81.2365C171.295 81.7155 172.04 81.955 172.927 81.955C173.565 81.955 174.124 81.7953 174.603 81.476C175.082 81.1567 175.455 80.7221 175.721 80.1722C176.005 79.6045 176.146 78.9836 176.146 78.3096C176.146 77.5823 176.005 76.9614 175.721 76.447C175.455 75.9148 175.082 75.5156 174.603 75.2496C174.124 74.9657 173.574 74.8238 172.953 74.8238C172.191 74.8238 171.525 75.0101 170.958 75.3826C170.408 75.7551 170.026 76.2252 169.814 76.7929H166.354L167.951 66.0696H178.328V69.2094H170.612L169.787 73.3071C170.195 72.8991 170.727 72.5621 171.384 72.296C172.04 72.0299 172.776 71.8969 173.592 71.8969C174.585 71.8969 175.455 72.0743 176.2 72.429C176.962 72.7661 177.592 73.2362 178.089 73.8393C178.603 74.4424 178.985 75.1254 179.233 75.8882C179.481 76.651 179.606 77.4403 179.606 78.2563C179.606 79.2497 179.446 80.1633 179.127 80.997C178.807 81.813 178.346 82.5226 177.743 83.1257C177.14 83.7289 176.43 84.199 175.614 84.536C174.798 84.8553 173.894 85.015 172.9 85.015Z" fill="#1B2559"/>
<rect x="113.696" y="104.87" width="46.5217" height="18.7826" rx="9.3913" fill="#05CD99" fill-opacity="0.1"/>
<path d="M122.386 116.688V112.406H123.475V116.688H122.386ZM120.639 115.073V114.011H125.222V115.073H120.639ZM125.984 117.261V116.331C126.391 116.012 126.788 115.693 127.176 115.373C127.564 115.054 127.912 114.738 128.219 114.425C128.525 114.105 128.767 113.795 128.942 113.495C129.123 113.194 129.214 112.903 129.214 112.622C129.214 112.446 129.18 112.287 129.111 112.143C129.048 111.992 128.945 111.873 128.801 111.786C128.663 111.692 128.479 111.645 128.247 111.645C128.021 111.645 127.831 111.695 127.674 111.795C127.524 111.895 127.408 112.03 127.327 112.199C127.251 112.362 127.214 112.546 127.214 112.753H125.993C126.005 112.271 126.112 111.867 126.312 111.542C126.519 111.216 126.791 110.975 127.129 110.818C127.474 110.656 127.859 110.574 128.284 110.574C128.754 110.574 129.152 110.662 129.477 110.837C129.803 111.006 130.05 111.238 130.219 111.532C130.394 111.826 130.482 112.165 130.482 112.546C130.482 112.834 130.426 113.116 130.313 113.392C130.207 113.667 130.059 113.936 129.872 114.199C129.69 114.456 129.48 114.703 129.242 114.941C129.004 115.179 128.754 115.408 128.491 115.627C128.234 115.84 127.984 116.04 127.74 116.228H130.642V117.261H125.984ZM132.114 117.308C131.882 117.308 131.694 117.239 131.55 117.101C131.406 116.957 131.334 116.782 131.334 116.575C131.334 116.369 131.406 116.197 131.55 116.059C131.694 115.915 131.882 115.843 132.114 115.843C132.352 115.843 132.539 115.915 132.677 116.059C132.821 116.197 132.893 116.369 132.893 116.575C132.893 116.782 132.821 116.957 132.677 117.101C132.539 117.239 132.352 117.308 132.114 117.308ZM136.881 117.261V116.068H133.65V115.063L136.712 110.687H138.139V114.969H139.003V116.068H138.139V117.261H136.881ZM135.002 114.969H136.965V112.086L135.002 114.969ZM142.188 117.374C141.712 117.374 141.305 117.292 140.967 117.129C140.629 116.967 140.366 116.744 140.178 116.463C139.991 116.181 139.881 115.858 139.85 115.495H141.089C141.133 115.714 141.249 115.902 141.437 116.059C141.631 116.215 141.881 116.294 142.188 116.294C142.414 116.294 142.608 116.24 142.77 116.134C142.933 116.027 143.058 115.88 143.146 115.693C143.24 115.505 143.287 115.289 143.287 115.045C143.287 114.8 143.24 114.591 143.146 114.415C143.058 114.24 142.933 114.105 142.77 114.011C142.614 113.911 142.429 113.861 142.216 113.861C141.966 113.861 141.75 113.918 141.568 114.03C141.393 114.137 141.258 114.259 141.164 114.397H139.925L140.423 110.687H144.17V111.795H141.362L141.127 113.298C141.265 113.16 141.446 113.047 141.672 112.96C141.897 112.872 142.154 112.828 142.442 112.828C142.792 112.828 143.096 112.891 143.353 113.016C143.609 113.135 143.822 113.298 143.991 113.504C144.167 113.711 144.295 113.946 144.376 114.209C144.464 114.472 144.508 114.747 144.508 115.035C144.508 115.379 144.448 115.693 144.329 115.974C144.217 116.256 144.057 116.503 143.85 116.716C143.644 116.923 143.4 117.086 143.118 117.205C142.836 117.317 142.526 117.374 142.188 117.374ZM146.8 117.261L150.49 110.687H151.721L148.03 117.261H146.8ZM151.627 117.374C151.326 117.374 151.051 117.308 150.8 117.176C150.556 117.039 150.359 116.845 150.209 116.594C150.065 116.337 149.993 116.037 149.993 115.693C149.993 115.342 150.065 115.041 150.209 114.791C150.359 114.541 150.556 114.35 150.8 114.218C151.051 114.08 151.326 114.011 151.627 114.011C151.94 114.011 152.215 114.08 152.453 114.218C152.697 114.35 152.892 114.541 153.036 114.791C153.18 115.041 153.252 115.342 153.252 115.693C153.252 116.037 153.18 116.337 153.036 116.594C152.892 116.845 152.697 117.039 152.453 117.176C152.209 117.308 151.934 117.374 151.627 117.374ZM151.617 116.5C151.743 116.5 151.852 116.469 151.946 116.406C152.046 116.344 152.125 116.253 152.181 116.134C152.237 116.015 152.265 115.868 152.265 115.693C152.265 115.511 152.237 115.361 152.181 115.242C152.125 115.117 152.049 115.023 151.956 114.96C151.862 114.897 151.752 114.866 151.627 114.866C151.508 114.866 151.398 114.897 151.298 114.96C151.204 115.023 151.129 115.117 151.073 115.242C151.016 115.361 150.988 115.511 150.988 115.693C150.988 115.868 151.016 116.015 151.073 116.134C151.129 116.253 151.204 116.344 151.298 116.406C151.392 116.469 151.498 116.5 151.617 116.5ZM146.941 113.946C146.634 113.946 146.355 113.877 146.105 113.739C145.861 113.601 145.663 113.407 145.513 113.157C145.369 112.906 145.297 112.609 145.297 112.265C145.297 111.908 145.369 111.607 145.513 111.363C145.663 111.113 145.861 110.919 146.105 110.781C146.355 110.643 146.634 110.574 146.941 110.574C147.247 110.574 147.523 110.643 147.767 110.781C148.011 110.919 148.205 111.113 148.349 111.363C148.493 111.607 148.565 111.908 148.565 112.265C148.565 112.609 148.493 112.906 148.349 113.157C148.205 113.407 148.011 113.601 147.767 113.739C147.523 113.877 147.247 113.946 146.941 113.946ZM146.931 113.072C147.056 113.072 147.166 113.041 147.26 112.978C147.354 112.916 147.429 112.825 147.485 112.706C147.542 112.587 147.57 112.44 147.57 112.265C147.57 112.077 147.542 111.923 147.485 111.805C147.429 111.686 147.354 111.595 147.26 111.532C147.166 111.47 147.06 111.438 146.941 111.438C146.815 111.438 146.703 111.47 146.602 111.532C146.509 111.595 146.433 111.689 146.377 111.814C146.321 111.933 146.293 112.083 146.293 112.265C146.293 112.44 146.321 112.587 146.377 112.706C146.433 112.825 146.509 112.916 146.602 112.978C146.703 113.041 146.812 113.072 146.931 113.072Z" fill="#05CD99"/>
<rect x="232.435" y="17.2174" width="23.4783" height="23.4783" rx="5.47826" fill="#F4F7FE"/>
<g clip-path="url(#clip1_21_181)">
<path d="M239.791 26.7652H239.947C240.55 26.7652 241.043 27.2583 241.043 27.8609V33.3391C241.043 33.9417 240.55 34.4348 239.947 34.4348H239.791C239.188 34.4348 238.695 33.9417 238.695 33.3391V27.8609C238.695 27.2583 239.188 26.7652 239.791 26.7652V26.7652ZM244.174 23.4783C244.776 23.4783 245.269 23.9713 245.269 24.5739V33.3391C245.269 33.9417 244.776 34.4348 244.174 34.4348C243.571 34.4348 243.078 33.9417 243.078 33.3391V24.5739C243.078 23.9713 243.571 23.4783 244.174 23.4783ZM248.556 29.7391C249.159 29.7391 249.652 30.2322 249.652 30.8348V33.3391C249.652 33.9417 249.159 34.4348 248.556 34.4348C247.954 34.4348 247.461 33.9417 247.461 33.3391V30.8348C247.461 30.2322 247.954 29.7391 248.556 29.7391V29.7391Z" fill="#584EFE"/>
</g>
<path d="M22.2901 205.887C15.2649 212.461 5.89798 206.8 2.09266 203.148L-20.7393 308.409L280.027 320.148C281.93 272.278 283.277 174.739 273.441 167.539C261.147 158.539 255 175.365 252.805 180.452C250.609 185.539 243.145 189.452 236.998 187.887C230.851 186.322 217.679 205.887 208.458 210.583C199.238 215.278 186.504 189.452 180.796 185.148C175.088 180.843 170.259 190.235 168.063 189.452C165.868 188.67 156.647 164.017 150.061 164.409C143.475 164.8 137.767 187.887 132.937 185.148C128.107 182.409 122.838 203.148 106.593 216.843C90.3468 230.539 83.7607 164.8 74.9792 161.67C66.1977 158.539 63.5632 172.235 54.7817 185.148C46.0002 198.061 42.0485 188.278 39.4141 185.148C36.7796 182.017 31.0716 197.67 22.2901 205.887Z" fill="url(#paint0_linear_21_181)" stroke="#584EFE" stroke-width="3.13043" stroke-linecap="round" stroke-linejoin="round"/>
<path d="M22.2901 205.887C15.2649 212.461 5.89798 206.8 2.09266 203.148L-20.7393 308.409L280.027 320.148C281.93 272.278 283.277 174.739 273.441 167.539C261.147 158.539 255 175.365 252.805 180.452C250.609 185.539 243.145 189.452 236.998 187.887C230.851 186.322 217.679 205.887 208.458 210.583C199.238 215.278 186.504 189.452 180.796 185.148C175.088 180.843 170.259 190.235 168.063 189.452C165.868 188.67 156.647 164.017 150.061 164.409C143.475 164.8 137.767 187.887 132.937 185.148C128.107 182.409 122.838 203.148 106.593 216.843C90.3468 230.539 83.7607 164.8 74.9792 161.67C66.1977 158.539 63.5632 172.235 54.7817 185.148C46.0002 198.061 42.0485 188.278 39.4141 185.148C36.7796 182.017 31.0716 197.67 22.2901 205.887Z" stroke="#584EFE" stroke-width="3.13043" stroke-linecap="round" stroke-linejoin="round"/>
</g>
<defs>
<linearGradient id="paint0_linear_21_181" x1="130.742" y1="145.957" x2="130.742" y2="288.452" gradientUnits="userSpaceOnUse">
<stop stop-color="#E9E3FF"/>
<stop offset="0.72165" stop-color="#E9E3FF" stop-opacity="0"/>
</linearGradient>
<clipPath id="clip0_21_181">
<rect width="274" height="270" fill="white"/>
</clipPath>
<clipPath id="clip1_21_181">
<rect width="18.7826" height="18.7826" fill="white" transform="translate(234.782 19.5652)"/>
</clipPath>
</defs>
</svg>
