<svg width="275" height="104" viewBox="0 0 275 104" fill="none" xmlns="http://www.w3.org/2000/svg">
<rect width="274" height="102.618" transform="translate(0.0908203 0.691116)" fill="white"/>
<path d="M30.6208 38.4121C29.8605 38.4121 29.194 38.2788 28.6214 38.0122C28.0487 37.7358 27.6043 37.3507 27.2884 36.857C26.9724 36.3633 26.8144 35.7857 26.8144 35.1241H28.3696C28.3696 35.4993 28.4584 35.8449 28.6362 36.1609C28.8139 36.467 29.0657 36.7138 29.3915 36.9014C29.7272 37.0791 30.1321 37.168 30.606 37.168C31.0306 37.168 31.391 37.0989 31.6872 36.9607C31.9834 36.8224 32.2105 36.6348 32.3685 36.3978C32.5363 36.151 32.6203 35.8696 32.6203 35.5536C32.6203 35.1883 32.5363 34.8871 32.3685 34.6502C32.2006 34.4132 31.9735 34.2207 31.6872 34.0726C31.4107 33.9146 31.0849 33.7763 30.7097 33.6578C30.3443 33.5394 29.9593 33.411 29.5544 33.2728C28.7349 33.0062 28.1227 32.6606 27.7179 32.236C27.3229 31.8114 27.1255 31.2585 27.1255 30.5772C27.1255 29.9946 27.2637 29.4911 27.5402 29.0665C27.8166 28.632 28.2017 28.2963 28.6954 28.0594C29.199 27.8125 29.7914 27.6891 30.4727 27.6891C31.1441 27.6891 31.7316 27.8125 32.2352 28.0594C32.7388 28.3062 33.1337 28.6469 33.4201 29.0813C33.7064 29.5158 33.8496 30.0243 33.8496 30.6068H32.2796C32.2796 30.3402 32.2105 30.0786 32.0723 29.8218C31.934 29.5651 31.7267 29.3578 31.4502 29.1998C31.1738 29.0319 30.8331 28.948 30.4283 28.948C30.0926 28.9381 29.7914 28.9924 29.5248 29.1109C29.2582 29.2294 29.0459 29.4022 28.8879 29.6293C28.7398 29.8564 28.6658 30.1279 28.6658 30.4439C28.6658 30.7599 28.7349 31.0166 28.8731 31.2141C29.0114 31.4017 29.2089 31.5646 29.4656 31.7028C29.7223 31.8411 30.0185 31.9694 30.3542 32.0879C30.6998 32.1965 31.0799 32.3199 31.4947 32.4582C32.0081 32.626 32.4623 32.8334 32.8572 33.0802C33.2621 33.3172 33.578 33.6282 33.8051 34.0133C34.0421 34.3885 34.1606 34.8723 34.1606 35.4648C34.1606 35.9782 34.0273 36.4571 33.7607 36.9014C33.4941 37.3457 33.0992 37.7111 32.5758 37.9974C32.0525 38.2739 31.4009 38.4121 30.6208 38.4121ZM35.5515 41.4928V30.7846H36.8845L37.0326 31.9398C37.1906 31.7028 37.3881 31.4856 37.6251 31.2881C37.862 31.0808 38.1434 30.9178 38.4693 30.7994C38.805 30.671 39.195 30.6068 39.6393 30.6068C40.3502 30.6068 40.9723 30.7796 41.5055 31.1252C42.0486 31.4609 42.4682 31.925 42.7644 32.5174C43.0705 33.1 43.2235 33.7714 43.2235 34.5317C43.2235 35.2722 43.0705 35.9387 42.7644 36.5311C42.4583 37.1137 42.0337 37.5728 41.4907 37.9086C40.9575 38.2443 40.3354 38.4121 39.6245 38.4121C39.042 38.4121 38.5285 38.2986 38.0842 38.0715C37.6399 37.8345 37.2893 37.5087 37.0326 37.094V41.4928H35.5515ZM39.3875 37.1236C39.8417 37.1236 40.2416 37.015 40.5872 36.7977C40.9427 36.5805 41.2191 36.2794 41.4166 35.8943C41.624 35.4993 41.7277 35.0402 41.7277 34.5169C41.7277 33.9936 41.624 33.5344 41.4166 33.1395C41.2191 32.7445 40.9427 32.4384 40.5872 32.2212C40.2416 32.004 39.8417 31.8954 39.3875 31.8954C38.9235 31.8954 38.5137 32.004 38.1582 32.2212C37.8127 32.4384 37.5411 32.7445 37.3437 33.1395C37.1462 33.5344 37.0474 33.9936 37.0474 34.5169C37.0474 35.0303 37.1462 35.4845 37.3437 35.8795C37.5411 36.2744 37.8127 36.5805 38.1582 36.7977C38.5137 37.015 38.9235 37.1236 39.3875 37.1236ZM48.0484 38.4121C47.3276 38.4121 46.6907 38.2492 46.1378 37.9234C45.5849 37.5975 45.1504 37.1433 44.8344 36.5608C44.5284 35.9782 44.3753 35.3018 44.3753 34.5317C44.3753 33.7418 44.5284 33.0555 44.8344 32.473C45.1504 31.8904 45.5849 31.4362 46.1378 31.1104C46.6907 30.7747 47.3325 30.6068 48.0632 30.6068C48.7939 30.6068 49.4209 30.7697 49.9442 31.0956C50.4675 31.4214 50.8723 31.8509 51.1587 32.3841C51.445 32.9173 51.5882 33.5097 51.5882 34.1614C51.5882 34.2602 51.5832 34.3688 51.5734 34.4873C51.5734 34.5959 51.5684 34.7193 51.5586 34.8575H45.4565V33.806H50.1071C50.0775 33.1938 49.8701 32.7149 49.485 32.3693C49.1 32.0138 48.6211 31.8361 48.0484 31.8361C47.6436 31.8361 47.2733 31.9299 46.9376 32.1175C46.6019 32.2953 46.3303 32.5618 46.123 32.9173C45.9255 33.2629 45.8268 33.6973 45.8268 34.2207V34.6502C45.8268 35.1932 45.9255 35.6573 46.123 36.0424C46.3303 36.4176 46.6019 36.7039 46.9376 36.9014C47.2733 37.089 47.6386 37.1828 48.0336 37.1828C48.5075 37.1828 48.8975 37.0791 49.2036 36.8718C49.5196 36.6644 49.7467 36.383 49.8849 36.0276H51.3808C51.2426 36.4818 51.0204 36.8915 50.7143 37.2569C50.4181 37.6123 50.0429 37.8937 49.5887 38.1011C49.1345 38.3084 48.6211 38.4121 48.0484 38.4121ZM52.9375 38.2344V30.7846H54.2704L54.3593 32.0583C54.5963 31.614 54.932 31.2634 55.3664 31.0067C55.8009 30.7401 56.3045 30.6068 56.8771 30.6068C57.4597 30.6068 57.9633 30.7253 58.3878 30.9623C58.8124 31.1993 59.1432 31.5597 59.3802 32.0435C59.6171 32.5174 59.7356 33.1148 59.7356 33.8356V38.2344H58.2545V33.9837C58.2545 33.2925 58.1015 32.7692 57.7954 32.4137C57.4893 32.0484 57.045 31.8657 56.4624 31.8657C56.0774 31.8657 55.7318 31.9595 55.4257 32.1471C55.1196 32.3348 54.8727 32.6063 54.6851 32.9617C54.5074 33.3172 54.4185 33.7517 54.4185 34.2651V38.2344H52.9375ZM64.3998 38.2344C63.9357 38.2344 63.5309 38.1603 63.1853 38.0122C62.8397 37.8641 62.5731 37.6173 62.3855 37.2717C62.1979 36.9261 62.1041 36.4571 62.1041 35.8647V32.0287H60.8155V30.7846H62.1041L62.2818 28.9036H63.5852V30.7846H65.6883V32.0287H63.5852V35.8795C63.5852 36.304 63.6691 36.5953 63.837 36.7533C64.0147 36.9014 64.3257 36.9755 64.77 36.9755H65.6142V38.2344H64.3998ZM73.5848 38.2344C73.1207 38.2344 72.7159 38.1603 72.3703 38.0122C72.0247 37.8641 71.7581 37.6173 71.5705 37.2717C71.3829 36.9261 71.2891 36.4571 71.2891 35.8647V32.0287H70.0006V30.7846H71.2891L71.4668 28.9036H72.7702V30.7846H74.8733V32.0287H72.7702V35.8795C72.7702 36.304 72.8541 36.5953 73.022 36.7533C73.1997 36.9014 73.5107 36.9755 73.955 36.9755H74.7993V38.2344H73.5848ZM76.2107 38.2344V27.5706H77.6918V31.999C77.9386 31.5646 78.2793 31.2239 78.7137 30.9771C79.158 30.7302 79.6468 30.6068 80.18 30.6068C80.7724 30.6068 81.2809 30.7253 81.7055 30.9623C82.1301 31.1993 82.4559 31.5597 82.683 32.0435C82.9101 32.5273 83.0237 33.1296 83.0237 33.8504V38.2344H81.5574V33.9985C81.5574 33.2975 81.4093 32.7692 81.1131 32.4137C80.8169 32.0484 80.3775 31.8657 79.7949 31.8657C79.4 31.8657 79.0445 31.9645 78.7285 32.162C78.4126 32.3496 78.1608 32.6211 77.9732 32.9766C77.7856 33.332 77.6918 33.7714 77.6918 34.2947V38.2344H76.2107ZM84.7253 38.2344V30.7846H86.2064V38.2344H84.7253ZM85.4806 29.3627C85.1943 29.3627 84.9573 29.2738 84.7697 29.0961C84.592 28.9184 84.5031 28.6962 84.5031 28.4296C84.5031 28.1532 84.592 27.931 84.7697 27.7631C84.9573 27.5854 85.1943 27.4966 85.4806 27.4966C85.7571 27.4966 85.9891 27.5854 86.1767 27.7631C86.3643 27.931 86.4582 28.1532 86.4582 28.4296C86.4582 28.6962 86.3643 28.9184 86.1767 29.0961C85.9891 29.2738 85.7571 29.3627 85.4806 29.3627ZM90.9162 38.4121C90.2843 38.4121 89.7313 38.3084 89.2574 38.1011C88.7834 37.8937 88.4082 37.6025 88.1318 37.2273C87.8553 36.852 87.6874 36.4127 87.6282 35.9091H89.1389C89.1883 36.1461 89.2821 36.3633 89.4203 36.5608C89.5684 36.7582 89.7659 36.9162 90.0127 37.0347C90.2695 37.1532 90.5706 37.2124 90.9162 37.2124C91.242 37.2124 91.5086 37.168 91.716 37.0791C91.9233 36.9804 92.0764 36.852 92.1751 36.6941C92.2837 36.5262 92.338 36.3485 92.338 36.1609C92.338 35.8943 92.2689 35.6869 92.1307 35.5388C92.0023 35.3907 91.8049 35.2772 91.5383 35.1982C91.2815 35.1093 90.9705 35.0303 90.6052 34.9612C90.2695 34.902 89.9387 34.823 89.6129 34.7242C89.2969 34.6156 89.0105 34.4823 88.7538 34.3243C88.4971 34.1664 88.2947 33.9689 88.1466 33.7319C87.9985 33.4851 87.9244 33.1888 87.9244 32.8433C87.9244 32.4088 88.038 32.0237 88.2651 31.688C88.4922 31.3523 88.8131 31.0906 89.2278 30.903C89.6523 30.7056 90.151 30.6068 90.7237 30.6068C91.5531 30.6068 92.2196 30.8043 92.7231 31.1993C93.2267 31.5843 93.5229 32.1373 93.6118 32.8581H92.1751C92.1258 32.5322 91.9727 32.2755 91.716 32.0879C91.4691 31.9003 91.1334 31.8065 90.7089 31.8065C90.2843 31.8065 89.9584 31.8954 89.7313 32.0731C89.5042 32.2409 89.3907 32.4582 89.3907 32.7248C89.3907 32.9025 89.4549 33.0605 89.5832 33.1987C89.7116 33.3369 89.9041 33.4554 90.1609 33.5542C90.4176 33.6529 90.7237 33.7368 91.0791 33.806C91.6024 33.9047 92.0665 34.0281 92.4713 34.1762C92.886 34.3243 93.2168 34.5416 93.4637 34.8279C93.7204 35.1142 93.8487 35.524 93.8487 36.0572C93.8586 36.5213 93.7401 36.931 93.4933 37.2865C93.2563 37.642 92.9157 37.9184 92.4713 38.1159C92.0369 38.3134 91.5185 38.4121 90.9162 38.4121ZM98.7897 38.2344V30.7846H100.123L100.226 31.8213C100.463 31.4461 100.779 31.1499 101.174 30.9327C101.569 30.7154 102.013 30.6068 102.507 30.6068C102.882 30.6068 103.223 30.6611 103.529 30.7697C103.845 30.8685 104.117 31.0215 104.344 31.2289C104.581 31.4264 104.773 31.6831 104.921 31.999C105.188 31.5547 105.543 31.2141 105.988 30.9771C106.442 30.7302 106.926 30.6068 107.439 30.6068C108.041 30.6068 108.555 30.7253 108.979 30.9623C109.414 31.1993 109.745 31.5597 109.972 32.0435C110.209 32.5273 110.327 33.1247 110.327 33.8356V38.2344H108.861V33.9837C108.861 33.2925 108.718 32.7692 108.431 32.4137C108.145 32.0484 107.735 31.8657 107.202 31.8657C106.837 31.8657 106.511 31.9595 106.225 32.1471C105.938 32.3348 105.711 32.6112 105.543 32.9766C105.376 33.332 105.292 33.7665 105.292 34.2799V38.2344H103.825V33.9837C103.825 33.2925 103.682 32.7692 103.396 32.4137C103.109 32.0484 102.695 31.8657 102.152 31.8657C101.806 31.8657 101.49 31.9595 101.204 32.1471C100.917 32.3348 100.69 32.6112 100.523 32.9766C100.355 33.332 100.271 33.7665 100.271 34.2799V38.2344H98.7897ZM115.337 38.4121C114.636 38.4121 114.004 38.2492 113.441 37.9234C112.888 37.5975 112.449 37.1433 112.123 36.5608C111.807 35.9782 111.649 35.2969 111.649 34.5169C111.649 33.727 111.812 33.0407 112.138 32.4582C112.463 31.8756 112.908 31.4214 113.471 31.0956C114.033 30.7697 114.665 30.6068 115.366 30.6068C116.067 30.6068 116.694 30.7697 117.247 31.0956C117.81 31.4214 118.249 31.8756 118.565 32.4582C118.891 33.0407 119.054 33.727 119.054 34.5169C119.054 35.2969 118.891 35.9782 118.565 36.5608C118.24 37.1433 117.795 37.5975 117.232 37.9234C116.68 38.2492 116.048 38.4121 115.337 38.4121ZM115.337 37.1384C115.742 37.1384 116.107 37.0397 116.433 36.8422C116.768 36.6447 117.035 36.3534 117.232 35.9683C117.44 35.5734 117.543 35.0846 117.543 34.5021C117.543 33.9195 117.445 33.4357 117.247 33.0506C117.05 32.6655 116.783 32.3742 116.447 32.1768C116.122 31.9793 115.761 31.8806 115.366 31.8806C114.981 31.8806 114.616 31.9793 114.27 32.1768C113.935 32.3742 113.663 32.6655 113.456 33.0506C113.258 33.4357 113.159 33.9244 113.159 34.5169C113.159 35.0896 113.258 35.5734 113.456 35.9683C113.663 36.3534 113.93 36.6447 114.255 36.8422C114.591 37.0397 114.952 37.1384 115.337 37.1384ZM120.486 38.2344V30.7846H121.819L121.908 32.0583C122.145 31.614 122.48 31.2634 122.915 31.0067C123.349 30.7401 123.853 30.6068 124.425 30.6068C125.008 30.6068 125.512 30.7253 125.936 30.9623C126.361 31.1993 126.691 31.5597 126.928 32.0435C127.165 32.5174 127.284 33.1148 127.284 33.8356V38.2344H125.803V33.9837C125.803 33.2925 125.65 32.7692 125.344 32.4137C125.038 32.0484 124.593 31.8657 124.011 31.8657C123.626 31.8657 123.28 31.9595 122.974 32.1471C122.668 32.3348 122.421 32.6063 122.233 32.9617C122.056 33.3172 121.967 33.7517 121.967 34.2651V38.2344H120.486ZM131.948 38.2344C131.484 38.2344 131.079 38.1603 130.734 38.0122C130.388 37.8641 130.121 37.6173 129.934 37.2717C129.746 36.9261 129.652 36.4571 129.652 35.8647V32.0287H128.364V30.7846H129.652L129.83 28.9036H131.133V30.7846H133.237V32.0287H131.133V35.8795C131.133 36.304 131.217 36.5953 131.385 36.7533C131.563 36.9014 131.874 36.9755 132.318 36.9755H133.163V38.2344H131.948ZM134.574 38.2344V27.5706H136.055V31.999C136.302 31.5646 136.643 31.2239 137.077 30.9771C137.521 30.7302 138.01 30.6068 138.543 30.6068C139.136 30.6068 139.644 30.7253 140.069 30.9623C140.493 31.1993 140.819 31.5597 141.046 32.0435C141.273 32.5273 141.387 33.1296 141.387 33.8504V38.2344H139.921V33.9985C139.921 33.2975 139.773 32.7692 139.476 32.4137C139.18 32.0484 138.741 31.8657 138.158 31.8657C137.763 31.8657 137.408 31.9645 137.092 32.162C136.776 32.3496 136.524 32.6211 136.336 32.9766C136.149 33.332 136.055 33.7714 136.055 34.2947V38.2344H134.574Z" fill="#4F4F4F"/>
<path d="M32.8763 75.5869V53.2691H34.552V75.5869H32.8763ZM33.9427 73.6827C32.6562 73.6827 31.5052 73.4626 30.4896 73.0225C29.474 72.5824 28.6785 71.9392 28.103 71.0929C27.5275 70.2466 27.2228 69.2225 27.1889 68.0207H30.8197C30.8536 68.5454 30.989 69.0194 31.2259 69.4425C31.4798 69.8657 31.8353 70.2042 32.2923 70.4581C32.7493 70.6951 33.291 70.8136 33.9173 70.8136C34.4589 70.8136 34.9244 70.729 35.3137 70.5597C35.72 70.3904 36.0331 70.145 36.2532 69.8234C36.4732 69.4849 36.5832 69.0956 36.5832 68.6555C36.5832 68.1307 36.4563 67.6991 36.2024 67.3606C35.9485 67.022 35.6015 66.7343 35.1614 66.4973C34.7213 66.2603 34.2135 66.0488 33.638 65.8626C33.0794 65.6594 32.487 65.4563 31.8607 65.2532C30.4896 64.7793 29.4317 64.1699 28.6869 63.4251C27.9591 62.6634 27.5952 61.6563 27.5952 60.4037C27.5952 59.3373 27.8491 58.4233 28.3569 57.6616C28.8816 56.8999 29.5925 56.3159 30.4896 55.9097C31.4037 55.5035 32.4531 55.3003 33.638 55.3003C34.8398 55.3003 35.8892 55.5119 36.7863 55.9351C37.7004 56.3413 38.4198 56.9338 38.9445 57.7124C39.4692 58.491 39.7485 59.405 39.7824 60.4545H36.1008C36.1008 60.0483 35.9908 59.6759 35.7707 59.3373C35.5676 58.9988 35.2799 58.7195 34.9075 58.4995C34.5351 58.2794 34.095 58.1694 33.5872 58.1694C33.1302 58.1694 32.7239 58.2456 32.3685 58.3979C32.013 58.5503 31.7253 58.7703 31.5052 59.0581C31.3021 59.3458 31.2006 59.7097 31.2006 60.1498C31.2006 60.573 31.3021 60.9369 31.5052 61.2416C31.7084 61.5293 31.9961 61.7748 32.3685 61.9779C32.7578 62.181 33.1979 62.3757 33.6888 62.5619C34.1966 62.7311 34.7467 62.9173 35.3391 63.1204C36.2362 63.4251 37.0487 63.789 37.7766 64.2122C38.5213 64.6185 39.1138 65.1516 39.5538 65.8118C39.9939 66.4719 40.214 67.3436 40.214 68.4269C40.214 69.3579 39.9686 70.2212 39.4777 71.0167C39.0037 71.8123 38.3013 72.4555 37.3703 72.9464C36.4393 73.4372 35.2968 73.6827 33.9427 73.6827ZM49.1939 73.6827C47.8398 73.6827 46.6972 73.4372 45.7663 72.9464C44.8522 72.4386 44.1159 71.77 43.5573 70.9406C43.0157 70.1111 42.6179 69.1886 42.364 68.173C42.1101 67.1574 41.9832 66.1249 41.9832 65.0755C41.9832 63.0781 42.2624 61.3516 42.821 59.8959C43.3796 58.4402 44.1836 57.3146 45.2331 56.5191C46.2994 55.7066 47.5774 55.3003 49.067 55.3003C50.3195 55.3003 51.369 55.5458 52.2153 56.0366C53.0786 56.5106 53.7472 57.1453 54.2211 57.9409C54.6951 58.7195 54.9744 59.5659 55.059 60.4799H51.8852C51.7498 59.7182 51.4367 59.1342 50.9458 58.728C50.4549 58.3217 49.8202 58.1186 49.0416 58.1186C48.3306 58.1186 47.7044 58.3387 47.1627 58.7788C46.6211 59.2189 46.1894 59.879 45.8678 60.7592C45.5631 61.6394 45.3854 62.7481 45.3346 64.0853C45.3346 64.1022 45.3346 64.1276 45.3346 64.1614C45.3346 64.1784 45.3346 64.1953 45.3346 64.2122C45.6055 63.7552 45.9609 63.3574 46.401 63.0189C46.858 62.6634 47.3743 62.3841 47.9498 62.181C48.5422 61.9779 49.1516 61.8763 49.7779 61.8763C50.7596 61.8763 51.6821 62.1133 52.5454 62.5873C53.4086 63.0612 54.1026 63.7298 54.6274 64.5931C55.169 65.4563 55.4398 66.4804 55.4398 67.6652C55.4398 68.7316 55.1775 69.7303 54.6527 70.6613C54.128 71.5753 53.3917 72.3116 52.4438 72.8702C51.5129 73.4118 50.4295 73.6827 49.1939 73.6827ZM48.9908 70.7374C49.6001 70.7374 50.1418 70.6105 50.6157 70.3566C51.0897 70.1027 51.4621 69.7557 51.7329 69.3156C52.0037 68.8586 52.1391 68.3423 52.1391 67.7668C52.1391 67.1575 52.0037 66.6327 51.7329 66.1926C51.4621 65.7525 51.0812 65.4055 50.5903 65.1516C50.1164 64.8977 49.5748 64.7708 48.9654 64.7708C48.356 64.7708 47.8144 64.9062 47.3404 65.177C46.8665 65.4309 46.4856 65.7864 46.1979 66.2434C45.9101 66.6835 45.7663 67.1828 45.7663 67.7414C45.7663 68.3169 45.9101 68.8332 46.1979 69.2902C46.4856 69.7303 46.8665 70.0858 47.3404 70.3566C47.8313 70.6105 48.3814 70.7374 48.9908 70.7374ZM64.2472 73.6827C63.0285 73.6827 61.9198 73.4626 60.9211 73.0225C59.9393 72.5824 59.1523 71.9646 58.5598 71.1691C57.9843 70.3735 57.6966 69.451 57.6966 68.4016C57.6966 67.6737 57.815 67.0136 58.052 66.4211C58.3059 65.8287 58.6614 65.304 59.1184 64.847C59.5754 64.3899 60.1086 64.0429 60.718 63.806C59.9393 63.4505 59.3131 62.9427 58.8391 62.2826C58.3652 61.6224 58.1282 60.8777 58.1282 60.0483C58.1282 59.2189 58.3567 58.4402 58.8137 57.7124C59.2877 56.9845 59.9732 56.4006 60.8703 55.9605C61.7843 55.5204 62.91 55.3003 64.2472 55.3003C65.6013 55.3003 66.7269 55.5204 67.624 55.9605C68.5381 56.4006 69.2236 56.9845 69.6806 57.7124C70.1376 58.4402 70.3662 59.2189 70.3662 60.0483C70.3662 60.8607 70.1207 61.6055 69.6298 62.2826C69.1559 62.9427 68.5381 63.4505 67.7764 63.806C68.4027 64.0599 68.9359 64.4153 69.3759 64.8724C69.833 65.3124 70.1884 65.8287 70.4423 66.4211C70.6962 67.0136 70.8232 67.6737 70.8232 68.4016C70.8232 69.451 70.527 70.3735 69.9345 71.1691C69.3421 71.9646 68.555 72.5824 67.5733 73.0225C66.5915 73.4626 65.4828 73.6827 64.2472 73.6827ZM64.2472 70.8136C65.3136 70.8136 66.1091 70.5597 66.6338 70.0519C67.1755 69.5441 67.4463 68.9009 67.4463 68.1223C67.4463 67.259 67.1586 66.5819 66.583 66.0911C66.0245 65.5833 65.2458 65.3294 64.2472 65.3294C63.2485 65.3294 62.4614 65.5833 61.8859 66.0911C61.3104 66.5819 61.0226 67.259 61.0226 68.1223C61.0226 68.9009 61.2935 69.5441 61.8351 70.0519C62.3937 70.5597 63.1977 70.8136 64.2472 70.8136ZM64.2472 62.8158C65.1104 62.8158 65.779 62.5957 66.253 62.1556C66.7439 61.7155 66.9893 61.1485 66.9893 60.4545C66.9893 59.7097 66.7523 59.1342 66.2784 58.728C65.8044 58.3048 65.1274 58.0932 64.2472 58.0932C63.3839 58.0932 62.7153 58.3048 62.2414 58.728C61.7674 59.1342 61.5304 59.7182 61.5304 60.4799C61.5304 61.157 61.7674 61.7155 62.2414 62.1556C62.7153 62.5957 63.3839 62.8158 64.2472 62.8158ZM72.7546 73.378V70.8644C73.821 70.0011 74.862 69.1379 75.8776 68.2746C76.8932 67.4113 77.8072 66.5566 78.6197 65.7102C79.4322 64.847 80.0669 64.0091 80.5239 63.1966C80.9979 62.3841 81.2348 61.597 81.2348 60.8353C81.2348 60.3614 81.1502 59.9298 80.9809 59.5405C80.8117 59.1342 80.5493 58.8126 80.1939 58.5756C79.8384 58.3217 79.3644 58.1948 78.772 58.1948C78.1965 58.1948 77.7056 58.3302 77.2994 58.601C76.8932 58.8719 76.5885 59.2358 76.3854 59.6928C76.1822 60.1329 76.0807 60.6322 76.0807 61.1908H72.78C72.8138 59.8875 73.1016 58.7957 73.6432 57.9155C74.1849 57.0353 74.9127 56.3836 75.8268 55.9605C76.7408 55.5204 77.7564 55.3003 78.8736 55.3003C80.1261 55.3003 81.1756 55.5373 82.0219 56.0113C82.8852 56.4683 83.5369 57.0946 83.977 57.8901C84.434 58.6857 84.6625 59.5997 84.6625 60.6322C84.6625 61.4109 84.5186 62.1726 84.2309 62.9173C83.96 63.6621 83.5792 64.3899 83.0883 65.1009C82.5974 65.7949 82.0389 66.4635 81.4126 67.1067C80.7863 67.7499 80.1346 68.3677 79.4575 68.9601C78.7974 69.5356 78.1542 70.0773 77.5279 70.5851H85.0687V73.378H72.7546ZM88.6071 73.5049C87.9808 73.5049 87.473 73.3187 87.0837 72.9464C86.6943 72.557 86.4997 72.0916 86.4997 71.5499C86.4997 70.9744 86.6943 70.5005 87.0837 70.1281C87.473 69.7388 87.9808 69.5441 88.6071 69.5441C89.2333 69.5441 89.7411 69.7388 90.1305 70.1281C90.5198 70.5005 90.7144 70.9744 90.7144 71.5499C90.7144 72.0916 90.5198 72.557 90.1305 72.9464C89.7411 73.3187 89.2333 73.5049 88.6071 73.5049ZM99.2478 73.6827C97.9445 73.6827 96.8189 73.4542 95.871 72.9971C94.94 72.5232 94.2037 71.8884 93.662 71.0929C93.1373 70.2804 92.8326 69.3664 92.748 68.3508H96.0741C96.2095 69.0278 96.565 69.6033 97.1405 70.0773C97.716 70.5343 98.4269 70.7628 99.2732 70.7628C99.8826 70.7628 100.416 70.6105 100.873 70.3058C101.33 70.0011 101.685 69.5864 101.939 69.0617C102.21 68.52 102.345 67.9276 102.345 67.2844C102.345 66.5904 102.21 65.998 101.939 65.5071C101.685 64.9993 101.33 64.6185 100.873 64.3646C100.416 64.0937 99.891 63.9583 99.2986 63.9583C98.5708 63.9583 97.936 64.136 97.3944 64.4915C96.8696 64.847 96.4973 65.2955 96.2772 65.8372H93.0019L94.5253 55.605H104.427V58.601H97.0643L96.2772 62.5111C96.6496 62.1218 97.1489 61.8002 97.7752 61.5463C98.4015 61.2924 99.1124 61.1654 99.908 61.1654C100.856 61.1654 101.685 61.3347 102.396 61.6732C103.124 61.9948 103.725 62.4434 104.199 63.0189C104.69 63.5944 105.054 64.2461 105.291 64.9739C105.528 65.7018 105.646 66.455 105.646 67.2336C105.646 68.1815 105.485 69.0532 105.164 69.8488C104.859 70.6274 104.419 71.3045 103.843 71.88C103.285 72.4555 102.616 72.904 101.838 73.2257C101.059 73.5303 100.196 73.6827 99.2478 73.6827Z" fill="#1B2559"/>
<rect x="237.142" y="75.3486" width="48.2097" height="5.64171" rx="2.82085" transform="rotate(-90 237.142 75.3486)" fill="#E9EDF7"/>
<rect x="237.142" y="75.3486" width="11.4962" height="5.64171" rx="2.82086" transform="rotate(-90 237.142 75.3486)" fill="#584EFE"/>
<rect x="221.782" y="75.3486" width="48.2097" height="5.64166" rx="2.82083" transform="rotate(-90 221.782 75.3486)" fill="#E9EDF7"/>
<rect x="221.782" y="75.3486" width="43.7596" height="5.64172" rx="2.82086" transform="rotate(-90 221.782 75.3486)" fill="#584EFE"/>
<rect x="206.423" y="75.3486" width="48.2097" height="5.64172" rx="2.82086" transform="rotate(-90 206.423 75.3486)" fill="#E9EDF7"/>
<rect x="206.423" y="75.3486" width="33.3759" height="5.64172" rx="2.82086" transform="rotate(-90 206.423 75.3486)" fill="#584EFE"/>
<rect x="191.064" y="75.3486" width="48.2097" height="5.64173" rx="2.82086" transform="rotate(-90 191.064 75.3486)" fill="#E9EDF7"/>
<rect x="191.064" y="75.3486" width="24.8465" height="5.64172" rx="2.82086" transform="rotate(-90 191.064 75.3486)" fill="#584EFE"/>
<rect x="175.705" y="75.3486" width="48.2097" height="5.64173" rx="2.82086" transform="rotate(-90 175.705 75.3486)" fill="#E9EDF7"/>
<rect x="175.705" y="75.3486" width="39.6803" height="5.64174" rx="2.82087" transform="rotate(-90 175.705 75.3486)" fill="#584EFE"/>
</svg>
