<svg width="202" height="47" viewBox="0 0 202 47" fill="none" xmlns="http://www.w3.org/2000/svg">
<path d="M85.08 9.62V14.66H79.32V29.96H85.08V35H67.8V29.96H73.56V14.66H67.8V9.62H85.08ZM99.2837 21.5C96.1517 21.5 94.0997 23.156 94.0997 28.268V35H88.3397V16.82H94.0997V19.016L93.0197 22.256H94.4597C95.1797 19.016 97.4477 16.46 101.336 16.46C105.98 16.46 108.788 19.556 108.788 25.172V35H103.028V26.072C103.028 22.76 102.056 21.5 99.2837 21.5ZM128.604 29.996C128.604 33.056 126.408 35.36 120.144 35.36C113.448 35.36 110.568 32.66 110.568 28.412H116.328C116.328 29.816 117.3 31.04 120.324 31.04C121.872 31.04 122.844 30.68 122.844 29.816C122.844 28.88 121.836 28.628 118.92 27.656C115.536 26.54 111.396 25.64 111.396 21.572C111.396 18.332 114.312 16.46 119.316 16.46C125.472 16.46 127.992 19.52 127.992 23.048H122.232C122.232 21.752 121.26 20.78 119.28 20.78C117.912 20.78 117.156 21.104 117.156 21.824C117.156 22.688 118.956 23.228 121.836 24.164C125.364 25.316 128.604 26.216 128.604 29.996ZM138.208 15.02C136.084 15.02 134.824 14.012 134.824 12.14C134.824 10.304 136.084 9.26 138.208 9.26C140.332 9.26 141.664 10.304 141.664 12.14C141.664 14.012 140.332 15.02 138.208 15.02ZM146.596 35H130.756V29.96H135.904V21.644L131.476 21.86V16.82L138.316 16.46C140.332 16.352 141.448 17.468 141.448 19.484V29.96H146.596V35ZM155.225 21.86V30.32L161.921 29.96V35L152.525 35.36C150.545 35.432 149.465 34.28 149.465 32.3V21.86H145.145V16.82H149.465V13.4L155.225 11.6V16.82H161.201V21.86H155.225ZM163.346 25.676C163.346 19.916 167.27 16.46 172.922 16.46C178.574 16.46 182.534 19.808 182.534 25.316V27.116H168.746C168.746 29.204 170.258 30.68 173.534 30.68C175.55 30.68 177.062 29.96 177.422 28.592H183.182C182.822 31.22 179.834 35.36 173.534 35.36C166.55 35.36 163.346 30.824 163.346 25.676ZM168.746 23.876H177.134C177.134 22.508 176.126 21.14 172.922 21.14C169.718 21.14 168.746 22.508 168.746 23.876ZM191.447 35H185.687V19.556C185.687 17.576 186.803 16.496 188.783 16.532L200.699 16.82V21.86L191.447 21.644V35Z" fill="#060606"/>
<rect width="47" height="47" rx="12" fill="#060606"/>
<path d="M22.892 15.02C20.768 15.02 19.508 14.012 19.508 12.14C19.508 10.304 20.768 9.26 22.892 9.26C25.016 9.26 26.348 10.304 26.348 12.14C26.348 14.012 25.016 15.02 22.892 15.02ZM31.28 35H15.44V29.96H20.588V21.644L16.16 21.86V16.82L23 16.46C25.016 16.352 26.132 17.468 26.132 19.484V29.96H31.28V35Z" fill="white"/>
</svg>
